<svg xmlns="http://www.w3.org/2000/svg" viewBox="0 0 1284.15 814.4"><defs><style>.cls-1{fill:#8dcbf2;}.cls-2{fill:#425a7e;}.cls-3{fill:#0046a6;}.cls-4{fill:#8ddcfa;}.cls-5{fill:#006ec5;}.cls-6{fill:#a5e2f4;}.cls-7{fill:#86b6fd;}.cls-8{fill:#3a88fc;}.cls-9{fill:#425a7d;}.cls-10{fill:#a8cafe;}.cls-11{fill:#8aade1;}.cls-12{fill:aqua;}</style></defs><g id="Layer_2" data-name="Layer 2"><g id="Layer_1-2" data-name="Layer 1"><g id="Layer_2-2" data-name="Layer 2"><g id="Layer_1_Image" data-name="Layer 1 Image"><path class="cls-1" d="M745.46,522.1q3.21-19.11,6.4-38.23c.19-1.15.39-2.3.47-3.46.31-4.34,2.55-5.61,6.88-5.53,17.32.34,34.65.26,52,.4,6.93,0,7.31.65,6.13,7.6q-7.59,44.49-15.11,89-7.08,42-14,84-8.1,48.93-16.09,97.89c-1.65,10-3.54,20-5.17,30-.51,3.14-1.77,4.5-5.19,4.46-35.81-.36-71.62-.52-107.44-1-1.92,0-4.53-2-5.6-3.74-13.59-22.51-26.94-45.16-40.37-67.76-6.2-10.45-12.25-21-18.85-31.18-1.15-1.78-4.67-2.84-7.1-2.85-33.5-.18-67-.13-100.48-.12h-14.5c-2.78,0-4.21.66-4.74,4.1-5,32.54-10.31,65-15.54,97.55a8.65,8.65,0,0,1-8.79,7.54H165.92c-1.55,0-3.1-.3-5.57-.55,1.43-2,2.2-3.23,3.09-4.35,17.7-22.32,35.47-44.58,53.05-67a10,10,0,0,1,8.82-4.28c33.49.13,67,.07,100.48.08h7.11c-22.2-52.4-44-103.84-66.2-156.2-2.63,3.08-4.62,5.26-6.45,7.56Q222.71,613.1,185.2,660.2,134.59,723.43,83.82,786.43c-1.38,1.71-3.91,3.52-5.92,3.54-24.83.24-49.66.16-74.49.14a30.13,30.13,0,0,1-3.41-.5c3.66-4.63,6.86-8.74,10.12-12.81l62.5-78q66.57-83.35,133.09-166.75c7.79-9.76,15.73-19.41,23.42-29.25,9.15-11.7,20.41-20.57,34.57-25.08,23.53-7.48,48.48,1.41,58.47,25.22,24,57.15,48.33,114.14,72.53,171.19a18.15,18.15,0,0,0,3.66,6q2.49-15.92,5-31.83c1.74-11.33,3.53-22.65,5.11-34,.56-4.06,2.67-4.8,6.44-4.79q115.72.16,231.46.09c16,0,27.54-7.58,33.82-21.91,3.57-8.13,5.4-17.18,1.65-26.14-4.18-10-12-15.06-23-15l-131.48,0H421.22c-.37-.72-.75-1.44-1.12-2.17,2.75-2.27,5.62-4.43,8.23-6.85,21.11-19.58,42.23-39.14,63.18-58.89a11.69,11.69,0,0,1,8.82-3.47c58.32.08,116.65,0,175,.08,31.7,0,53.88,15.1,67.5,43.38.57,1.18,1.09,2.38,1.64,3.58ZM707.73,739.78l1.43-.39,17.22-103.08c-8.39,8-16.14,16.77-25.27,23.73s-19.56,12-30,18.29Z"/><path class="cls-2" d="M1141.17,631.59c-9.19-1.78-11.91-7.94-6.63-15.33,2.56-3.58,6.09-6.56,9.5-9.45,4.18-3.56,8.82-6.56,13-10.11,8.44-7.16,11.55-16.1,8.06-26.86-1.75-5.37-3.58-10.73-5.76-15.93-6.36-15.12-3.56-27.85,9.11-38.51,5.12-4.31,10.09-9.24,11-16.2,1.74-13.18,9.74-21.28,20.39-27.9,11-6.84,21.7-14.29,32.63-21.3a38,38,0,0,0,14.8-17A40.94,40.94,0,0,1,1271,410.63a64.41,64.41,0,0,1,6.84-1.69c0,6.54.33,12.49,0,18.39-6.47,99.37-42.92,186.13-111,258.9C1105.6,751.72,1030.12,791.83,942,807.7c-24.53,4.41-49.31,8.23-74.41,6.09a24.84,24.84,0,0,1-17.06-9.28c-2.66-3.23-1.56-6.59,2.7-8.31,6.79-2.74,13.66-5.3,20.6-7.58,13.1-4.32,26.21-8.64,39.47-12.43a40.26,40.26,0,0,1,15.27-1.69c12.25,1.4,22.13-3,31.24-10.48,11.35-9.27,22.35-19,34.27-27.54a483.4,483.4,0,0,1,40.79-26c10.63-6.07,19.43-13.31,24.47-24.66,1.42-3.19,3.22-6.2,4.7-9.37,6.08-13,16.36-20.07,30.38-22.35,9-1.47,18.13-2.83,26.88-5.35S1137.71,641.53,1141.17,631.59Z"/><path class="cls-1" d="M1042.6,38c-3.2,14.08,7.13,23.71,22.07,20.24.8,1.8,1.68,3.71,2.5,5.63,2.74,6.41,7.16,10.36,14.32,11.75,3.47.67,6.86,3,9.65,5.38,1.19,1,1.33,4.11.79,5.91-.24.78-3.38.87-5.22,1a16.79,16.79,0,0,1-3.84-.72l-1.73,1.9c1.45.67,3.12,1.08,4.33,2.06,6.19,5,12.07,10.51,18.46,15.29,3.17,2.37,3.15,4.41,1.67,7.5-4.28,8.92-16.94,15.6-27.52,12.58-10.28-2.93-20.15-7.48-29.93-11.92-9.12-4.15-18-8.37-28.38-8.47-7.69-.07-15.42-.45-23.06-1.28A20.91,20.91,0,0,1,980.23,94a5.61,5.61,0,0,0-4.1-2.46C954.52,92,937.86,83.31,926,65.28c-3.57-5.43-6.93-11-10.9-16.14-8.36-10.8-18.61-13.9-31.39-9.06-7.58,2.87-14.83,6.7-22,10.46-11.87,6.17-23.85,10.16-37.3,5.11-3.67-1.38-7.77-1.94-11.28,1,3.69,7.59,1.72,11.39-6.34,12.39-10.54,1.3-21.09,2.67-31.66,3.68-6.58.62-7.45-.3-8.79-6.54-20.48-2.7-46.51,7.9-67.77,27.49-1.47-2.46-2.58-5.33-4.55-7.38-2.68-2.8-6.47-3.39-9.51-.79C681,88.5,675.15,89,673.9,95c-.14.65-4.15.6-6.37.66-1.78,0-4-1-5.28-.24-3.41,2-7.15,4.1-9.45,7.15C640.08,119.38,622,128.2,603.24,135.7c-13.57,5.41-27.51,9.9-41.33,14.67-1.62.56-3.52.27-6.22.44C664.41,11.15,870.13-43.29,1042.6,38Z"/><path class="cls-1" d="M1268.4,317.81l-8.19,1.35c-2.28-4.68-4.39-9.54-7-14.12-1.14-2-3.29-3.41-5-5.09-1.33,1.73-3.11,3.29-3.91,5.24-2.22,5.47-3.07,11.72-10.89,12.51a21.47,21.47,0,0,1-16.25-4.74,11.51,11.51,0,0,0-7.25-2.28c-6.54.49-11.72-1.76-16.2-6.21-2.71-2.7-5.09-5.9-8.2-8-4.6-3.11-9.43-6.7-14.66-7.88-14.31-3.25-27.28-23.25-26.22-38.6a17.71,17.71,0,0,1,8.94-14.69c15.33-9.45,16.12-11.92,10.26-28.72a61.71,61.71,0,0,1-2.21-7.64c-1-4.89,1.22-8.24,5.26-10.83,7.22-4.63,8.52-9.07,4.9-16.83-1.39-3-3.23-5.8-4.86-8.71q-8.87-15.82,7.1-24.39a13.55,13.55,0,0,0,1.76-1.36C1221.83,189.4,1252.86,249.35,1268.4,317.81Z"/><polygon class="cls-3" points="806.14 184.15 734.86 252.3 663.58 232.5 806.14 184.15"/><polygon class="cls-4" points="806.14 184.15 715.3 174.55 663.58 232.5 806.14 184.15"/><polygon class="cls-5" points="806.14 184.15 813.22 126.55 715.3 174.55 806.14 184.15"/><polygon class="cls-4" points="885.34 132.43 813.22 126.55 806.14 184.15 885.34 132.43"/><polygon class="cls-4" points="806.14 184.15 829.54 264.3 788.49 254.93 806.14 184.15"/><polygon class="cls-3" points="806.14 184.15 931.42 184.15 829.54 264.3 806.14 184.15"/><polygon class="cls-5" points="885.34 132.43 931.42 184.15 806.14 184.15 885.34 132.43"/><polygon class="cls-5" points="931.42 184.15 916.31 253.14 829.54 264.3 931.42 184.15"/><polygon class="cls-4" points="916.31 253.14 880.48 353.59 829.54 264.3 916.31 253.14"/><polygon class="cls-5" points="829.54 264.3 880.48 353.59 770.5 327.18 829.54 264.3"/><polygon class="cls-6" points="770.5 327.18 880.48 353.59 770.5 383.82 770.5 327.18"/><polygon class="cls-5" points="699.21 354.75 770.5 327.18 770.5 383.82 699.21 354.75"/><polygon class="cls-5" points="699.22 355.5 669.69 305.95 770.5 327.18 699.22 355.5"/><polygon class="cls-6" points="669.69 305.95 734.86 252.3 770.5 327.18 669.69 305.95"/><polygon class="cls-5" points="669.69 305.95 663.58 232.5 734.86 252.3 669.69 305.95"/><polygon class="cls-6" points="614.65 270.88 663.58 232.5 669.69 305.95 614.65 270.88"/><polygon class="cls-7" points="614.65 270.88 602.02 252.3 663.58 232.5 614.65 270.88"/><polygon class="cls-3" points="602.02 252.3 614.98 223.5 663.58 232.5 602.02 252.3"/><polygon class="cls-4" points="614.98 223.5 647.62 188.46 663.58 232.5 614.98 223.5"/><polygon class="cls-3" points="647.62 188.46 715.3 174.55 663.58 232.5 647.62 188.46"/><polygon class="cls-5" points="675.94 155.83 715.3 174.55 647.62 188.46 675.94 155.83"/><polygon class="cls-4" points="694.18 133.15 715.3 174.55 675.94 155.83 694.18 133.15"/><polygon class="cls-4" points="813.22 126.55 694.18 133.15 745.3 112.27 813.22 126.55"/><polygon class="cls-8" points="813.22 126.55 715.3 174.55 694.18 133.15 813.22 126.55"/><polygon class="cls-8" points="813.22 126.55 745.3 112.27 786.34 96.79 813.22 126.55"/><polygon class="cls-4" points="813.22 126.55 786.34 96.79 825.94 96.79 813.22 126.55"/><polygon class="cls-8" points="813.22 126.55 825.94 96.79 858.7 96.79 813.22 126.55"/><polygon class="cls-4" points="813.22 126.55 858.7 96.79 875.26 110.82 813.22 126.55"/><polygon class="cls-8" points="813.22 126.55 875.26 110.82 885.34 132.43 813.22 126.55"/><polygon class="cls-4" points="931.42 184.15 885.34 132.43 912.34 136.39 931.42 184.15"/><polygon class="cls-8" points="931.42 184.15 912.34 136.39 940.06 148.62 931.42 184.15"/><polygon class="cls-4" points="931.42 184.15 940.06 148.62 962.74 156.9 931.42 184.15"/><polygon class="cls-5" points="931.42 184.15 961.81 157.55 1018.9 179.58 931.42 184.15"/><polygon class="cls-4" points="916.31 253.14 931.42 184.15 1018.9 179.58 916.31 253.14"/><polygon class="cls-5" points="1026.13 289.13 916.31 253.14 1018.9 179.58 1026.13 289.13"/><polygon class="cls-4" points="1025.08 275.81 1018.9 179.58 1058.41 222.55 1025.08 275.81"/><polygon class="cls-5" points="1015.54 291.06 1062.28 216.36 1121.86 271.74 1015.54 291.06"/><polygon class="cls-8" points="1078.77 279.57 1121.86 271.74 1091.29 318.3 1078.77 279.57"/><polygon class="cls-3" points="1121.86 271.74 1144.9 289.03 1091.29 318.3 1121.86 271.74"/><polygon class="cls-4" points="1144.9 289.03 1151.39 316.88 1091.29 318.3 1144.9 289.03"/><polygon class="cls-5" points="1151.39 316.88 1119.4 396.94 1091.29 318.3 1151.39 316.88"/><polygon class="cls-6" points="1178.74 317.11 1119.4 396.94 1151.39 316.88 1178.74 317.11"/><polygon class="cls-6" points="1219.78 362.47 1192.66 376.38 1178.74 317.11 1219.78 362.47"/><polygon class="cls-5" points="1219.78 362.47 1217.62 417.18 1192.66 376.38 1219.78 362.47"/><polygon class="cls-6" points="1237.78 351.67 1219.78 362.47 1238.5 378.3 1237.78 351.67"/><polygon class="cls-5" points="1178.74 317.11 1119.4 396.94 1192.66 376.38 1178.74 317.11"/><polygon class="cls-5" points="1192.66 376.38 1119.4 396.94 1172.5 425.47 1192.66 376.38"/><polygon class="cls-6" points="1192.66 376.38 1172.5 425.47 1217.62 417.18 1192.66 376.38"/><polygon class="cls-9" points="1183.78 458.23 1172.5 425.47 1163.62 480.3 1183.78 458.23"/><polygon class="cls-9" points="1163.62 480.3 1115.74 455.35 1158.58 496.38 1163.62 480.3"/><polygon class="cls-9" points="1158.58 496.38 1115.74 455.35 1134.64 509.13 1158.58 496.38"/><polygon class="cls-6" points="1172.5 425.47 1119.4 396.94 1115.74 455.35 1172.5 425.47"/><polygon class="cls-5" points="1119.4 396.94 1037.14 438.06 1115.74 455.35 1119.4 396.94"/><polygon class="cls-6" points="1091.29 318.3 1037.14 438.06 1119.4 396.94 1091.29 318.3"/><polygon class="cls-5" points="1029.94 341.59 1037.14 438.06 1091.29 318.3 1029.94 341.59"/><polygon class="cls-3" points="1026.13 289.13 1091.29 318.3 1078.77 279.57 1026.13 289.13"/><polygon class="cls-4" points="1029.94 341.59 1091.29 318.3 1026.13 289.13 1029.94 341.59"/><polygon class="cls-3" points="991.62 355.5 1029.94 341.59 1026.13 289.13 965.38 318.3 991.62 355.5"/><polygon class="cls-4" points="1037.14 438.06 1029.94 341.59 991.62 355.5 1037.14 438.06"/><polygon class="cls-4" points="991.62 355.5 965.38 318.3 880.48 353.59 991.62 355.5"/><polygon class="cls-6" points="1037.14 438.06 991.62 355.5 922.93 420.06 1037.14 438.06"/><polygon class="cls-5" points="922.93 420.06 991.62 355.5 880.48 353.59 922.93 420.06"/><polygon class="cls-10" points="872.26 446.7 924.1 420.06 859.78 438.06 872.26 446.7"/><polygon class="cls-9" points="876.1 467.35 922.93 420.06 872.26 446.7 876.1 467.35"/><polygon class="cls-9" points="876.1 467.35 952.41 459.08 922.93 420.06 876.1 467.35"/><polygon class="cls-5" points="922.93 420.06 951.18 460.3 1037.14 438.06 922.93 420.06"/><polygon class="cls-6" points="949.62 459.38 1042.18 482.24 1037.14 438.06 949.62 459.38"/><polygon class="cls-4" points="1037.14 438.06 1042.18 482.24 1115.74 455.35 1037.14 438.06"/><polygon class="cls-5" points="1042.18 482.24 1042.18 611.95 1112.38 555.19 1042.18 482.24"/><polygon class="cls-10" points="863.62 483.18 870.82 502.87 952.41 459.08 876.1 467.35 863.62 483.18"/><polygon class="cls-9" points="870.82 502.87 891.46 519.19 952.41 459.08 870.82 502.87"/><polygon class="cls-10" points="891.46 519.19 973.82 553.25 951.18 460.3 891.46 519.19"/><polygon class="cls-9" points="897.84 545.72 973.82 553.25 891.46 519.19 897.84 545.72"/><polygon class="cls-9" points="954.58 635.35 906.75 582.78 891.46 609.22 954.58 635.35"/><polygon class="cls-9" points="954.58 635.35 876.34 635.35 884.26 657.66 954.58 635.35"/><polygon class="cls-9" points="954.58 635.35 890.74 675.66 891.1 697.99 954.58 635.35"/><polygon class="cls-9" points="931.06 708.42 891.1 697.99 891.46 716.71 931.06 708.42"/><polygon class="cls-9" points="931.06 708.42 891.46 716.71 891.46 731.55 931.06 708.42"/><polygon class="cls-9" points="931.06 708.42 896.86 755.95 914.26 754.14 931.06 708.42"/><polygon class="cls-9" points="931.06 708.42 914.26 754.14 931.06 751.99 931.06 708.42"/><polygon class="cls-9" points="931.06 708.42 931.06 751.99 940.29 745.84 931.06 708.42"/><polygon class="cls-9" points="931.06 708.42 956.95 733.95 979.52 688.23 931.06 708.42"/><polygon class="cls-5" points="931.06 708.42 979.52 688.23 954.58 635.35 931.06 708.42"/><polygon class="cls-9" points="979.52 688.23 992.98 704.47 1023.94 686.47 979.52 688.23"/><polygon class="cls-6" points="954.58 635.35 979.52 688.23 1042.18 611.95 954.58 635.35"/><polygon class="cls-9" points="979.52 688.23 1023.94 686.47 1031.72 666.66 979.52 688.23"/><polygon class="cls-5" points="979.52 688.23 1031.72 666.66 1042.18 611.95 979.52 688.23"/><polygon class="cls-5" points="1031.72 666.66 1043.38 656.95 1042.18 611.95 1031.72 666.66"/><polygon class="cls-9" points="1061.74 646.5 1086.58 628.14 1042.18 611.95 1061.74 646.5"/><polygon class="cls-9" points="1086.58 628.14 1106.74 611.95 1042.18 611.95 1086.58 628.14"/><polygon class="cls-9" points="1118.62 592.5 1118.62 575.23 1042.18 611.95 1118.62 592.5"/><polygon class="cls-9" points="1118.62 575.23 1112.38 555.19 1042.18 611.95 1118.62 575.23"/><polygon class="cls-9" points="954.58 635.35 973.82 553.25 906.75 582.78 954.58 635.35"/><polygon class="cls-5" points="954.58 635.35 1042.18 611.95 973.82 553.25 954.58 635.35"/><polygon class="cls-6" points="973.82 553.25 1042.18 611.95 1042.18 482.24 973.82 553.25"/><polygon class="cls-5" points="973.82 553.25 1042.18 482.24 948.58 455.35 973.82 553.25"/><polygon class="cls-9" points="832.22 433.53 880.48 353.59 810.65 413.97 832.22 433.53"/><polygon class="cls-9" points="924.1 420.06 880.48 353.59 859.78 438.06 924.1 420.06"/><polygon class="cls-9" points="810.65 413.97 770.5 383.82 759.46 432.3 810.65 413.97"/><polygon class="cls-9" points="759.46 432.3 699.21 354.75 720.1 426.63 759.46 432.3"/><polygon class="cls-9" points="656.74 412.14 699.21 354.75 630.61 387.35 656.74 412.14"/><polygon class="cls-9" points="630.61 387.35 699.21 354.75 612.58 363.18 630.61 387.35"/><polygon class="cls-9" points="597.7 343.73 612.58 363.18 669.69 305.95 597.7 343.73"/><polygon class="cls-10" points="1219.78 362.47 1217.62 417.18 1238.5 378.3 1219.78 362.47"/><polygon class="cls-4" points="1217.62 417.18 1172.5 425.47 1204.66 445.26 1217.62 417.18"/><polygon class="cls-10" points="1204.66 445.26 1172.5 425.47 1183.78 458.23 1204.66 445.26"/><polygon class="cls-10" points="1163.62 480.3 1172.5 425.47 1115.74 455.35 1163.62 480.3"/><polygon class="cls-10" points="1134.64 509.13 1115.74 455.35 1042.18 482.24 1112.38 555.19 1134.64 509.13"/><polygon class="cls-10" points="906.75 582.78 973.82 553.25 897.84 545.72 906.75 582.78"/><polygon class="cls-10" points="954.58 635.35 891.46 609.22 876.34 635.35 954.58 635.35"/><polygon class="cls-10" points="954.58 635.35 884.26 657.66 890.74 675.66 954.58 635.35"/><polygon class="cls-10" points="954.58 635.35 891.1 697.99 931.06 708.42 954.58 635.35"/><polygon class="cls-10" points="931.06 708.42 891.46 731.55 896.86 755.95 931.06 708.42"/><polygon class="cls-10" points="931.06 708.42 940.29 745.84 956.95 733.95 931.06 708.42"/><polygon class="cls-10" points="956.95 733.95 992.98 704.47 979.52 688.23 956.95 733.95"/><polygon class="cls-10" points="1043.38 656.95 1061.74 646.5 1042.18 611.95 1043.38 656.95"/><polygon class="cls-10" points="1106.74 611.95 1118.62 592.5 1042.18 611.95 1106.74 611.95"/><polygon class="cls-10" points="810.65 413.97 880.48 353.59 770.5 383.82 810.65 413.97"/><polygon class="cls-10" points="859.78 438.06 880.48 353.59 832.22 433.53 837.22 438.06 859.78 438.06"/><polygon class="cls-10" points="770.5 383.82 699.21 354.75 759.46 432.3 770.5 383.82"/><polygon class="cls-10" points="720.1 426.63 699.21 354.75 690.82 436.62 720.1 426.63"/><polygon class="cls-10" points="690.82 436.62 699.21 354.75 656.74 412.14 690.82 436.62"/><polygon class="cls-10" points="612.58 363.18 699.21 354.75 669.69 305.95 612.58 363.18"/><polygon class="cls-10" points="600.1 303.18 597.7 343.73 669.69 305.95 600.1 303.18"/><polygon class="cls-4" points="1121.86 271.74 1062.28 216.36 1121.14 243.67 1121.86 271.74"/><polygon class="cls-8" points="1121.14 243.67 1073.13 221.39 1104.48 218.93 1121.14 243.67"/><polygon class="cls-4" points="1104.48 218.93 1058.41 222.55 1087.64 194.85 1104.48 218.93"/><polygon class="cls-4" points="1090.61 199.09 1056.1 148.62 1095.22 175.27 1090.61 199.09"/><polygon class="cls-8" points="1058.41 222.55 1056.1 148.62 1087.64 194.85 1058.41 222.55"/><polygon class="cls-4" points="1018.9 179.58 1056.1 150.1 1058.41 222.55 1018.9 179.58"/><polygon class="cls-8" points="1018.9 179.58 1029.34 148.27 1056.1 150.1 1018.9 179.58"/><polygon class="cls-4" points="1018.9 179.58 1003.42 138.9 1029.34 148.27 1018.9 179.58"/><polygon class="cls-8" points="1018.9 179.58 967.78 144.3 1003.42 138.9 1018.9 179.58"/><polygon class="cls-8" points="1095.22 175.27 1056.1 148.62 1082.26 155.83 1095.22 175.27"/><polygon class="cls-3" points="1026.13 289.13 965.38 318.3 916.31 253.14 1026.13 289.13"/><polygon class="cls-5" points="965.38 318.3 880.48 353.59 916.31 253.14 965.38 318.3"/><polygon class="cls-11" points="745.3 112.27 694.18 133.15 727.66 109.38 745.3 112.27"/><polygon class="cls-9" points="614.65 270.88 669.69 305.95 600.1 303.18 614.65 270.88"/><polygon class="cls-4" points="734.86 252.3 788.49 254.93 770.5 327.18 734.86 252.3"/><polygon class="cls-6" points="788.49 254.93 829.54 264.3 770.5 327.18 788.49 254.93"/><polygon class="cls-5" points="806.14 184.15 788.49 254.93 734.86 252.3 806.14 184.15"/><circle class="cls-12" cx="713.44" cy="176.88" r="14.17"/><circle class="cls-1" cx="832.68" cy="261.19" r="14.17"/><circle class="cls-1" cx="1022.7" cy="288.02" r="17.41"/><circle class="cls-1" cx="973.65" cy="554.46" r="17.41"/><circle class="cls-1" cx="811.76" cy="414.04" r="8.68"/><circle class="cls-12" cx="806.28" cy="184.34" r="9.92"/><circle class="cls-12" cx="926.08" cy="184.87" r="9.4"/><circle class="cls-12" cx="916.04" cy="253.07" r="9.29"/><circle class="cls-12" cx="1091.35" cy="318.38" r="9.19"/><circle class="cls-12" cx="906.75" cy="582" r="9.19"/><circle class="cls-1" cx="811.76" cy="129.38" r="9.19"/><circle class="cls-1" cx="1019.49" cy="179.21" r="9.19" transform="translate(679.29 1156.83) rotate(-80.78)"/><circle class="cls-12" cx="1062.19" cy="219.47" r="9.19"/><circle class="cls-12" cx="1117.27" cy="392.01" r="13.35"/><circle class="cls-12" cx="668.11" cy="307.3" r="13.59"/><circle class="cls-1" cx="773.65" cy="323.8" r="17.62"/><circle class="cls-12" cx="1037.93" cy="436.15" r="17.48"/><circle class="cls-12" cx="1267.92" cy="337.12" r="16.23"/><circle class="cls-12" cx="1058.4" cy="44.08" r="16.23"/><circle class="cls-12" cx="933.12" cy="708.12" r="17.48"/></g></g></g></g></svg>