<?xml version="1.0" encoding="utf-8"?>
<!-- Generator: Adobe Illustrator 26.0.3, SVG Export Plug-In . SVG Version: 6.00 Build 0)  -->
<svg version="1.1" id="Layer_1" xmlns="http://www.w3.org/2000/svg" xmlns:xlink="http://www.w3.org/1999/xlink" x="0px" y="0px"
	 viewBox="0 0 76 48" enable-background="new 0 0 76 48" xml:space="preserve">
<g>
	<path fill="#A8CAFE" d="M51.5,26.3l-0.7-0.5l3.8-1.1L51.5,26.3z M51.7,27.5L51,28.5l0.4,1.2l4.8-2.6L51.7,27.5z M52.7,30.6l4.9,2
		l-1.3-5.5L52.7,30.6z M38.8,24.3l2.5-3.4l-4.1,1.9L38.8,24.3z M72.1,21.4l-0.1,3.2l1.2-2.3L72.1,21.4z M69.9,27l1.2-0.8l-1.9-1.2
		L69.9,27z M68.7,28.3l0.5-3.2l-3.4,1.8L68.7,28.3z M65.7,32.7L67,30l-1.1-3.2l-4.3,1.6L65.7,32.7z M53.6,34.3l4-1.7L53,32.2
		L53.6,34.3z M51.8,37.4h4.6l-3.7-1.5L51.8,37.4z M52.6,39.8l3.8-2.4l-4.2,1.3L52.6,39.8z M52.6,41.1l2.4,0.6l1.4-4.3L52.6,41.1z
		 M55,41.8L55,41.8L55,41.8L55,41.8l-2.3,1.4l0.3,1.4L55,41.8l0.5,2.2l1-0.7L55,41.8L55,41.8z M56.5,43.3l2.1-1.7l-0.8-1L56.5,43.3z
		 M62.7,38.1l-1.2-2l0.1,2.7L62.7,38.1z M65.4,36.1l0.7-1.1l-4.5,1.1H65.4z M47.9,24.4l4.1-3.6l-6.5,1.8L47.9,24.4z M49.2,25.6
		l0.3,0.3h1.3l1.2-5L49.2,25.6z M44.9,25.5l0.7-2.9l-4.2-1.7L44.9,25.5z M42.5,25.1l-1.2-4.2l-0.5,4.8L42.5,25.1z M36.2,21.4
		l5.1-0.5L39.6,18L36.2,21.4z M35.3,20.3l4.3-2.2l-4.1-0.2L35.3,20.3z"/>
	<path fill="#3A88FC" d="M50.7,5.7L48,7.5l0.8-1.8H50.7z M42.3,10.3L48,7.5l-7,0.4L42.3,10.3z M44,6.6l4,0.8l-1.6-1.8L44,6.6z
		 M48,7.5l4.3,0.3l-0.6-1.3L48,7.5z M55,10.9l0.5-2.1L53.9,8L55,10.9z M63.7,16.5l0.7,2.3l1.8-2.7L63.7,16.5z M65.2,12.9L63.4,13
		l2.8,1.3L65.2,12.9z M62.4,8.8l0.1,4.4l1.7-1.6L62.4,8.8z M60.2,10.6l2.2-1.7l-1.6-0.1L60.2,10.6z M57.2,8.5l3,2.1l-0.9-2.4
		L57.2,8.5z M63.9,9.2l-1.5-0.4l2.3,1.6L63.9,9.2z"/>
	<path fill="#919FB4" d="M39.2,13.7l8.4-2.8l-4.2,4L39.2,13.7z M47.6,10.9l1.4,4.7l6-4.7H47.6z M35.6,14.9l3.6-1.2l-2.9-0.5
		L35.6,14.9z M38.3,11.1l0.9,2.6l3.1-3.4L38.3,11.1z M64.5,18.8l3.2-1.7l-1.4-1L64.5,18.8l-0.7-2.3L60.6,17L64.5,18.8L64.5,18.8
		L64.5,18.8L64.5,18.8L64.5,18.8z M56.5,43.3l1.3-2.7L55,41.8L56.5,43.3z M57.5,32.6l-4,1.7l2.8,3.1L57.5,32.6z M57,18.8l1.5,2.2
		l2.3-0.8L60.6,17l-6.5-2.1L57,18.8z"/>
	<path fill="#8AADE1" d="M63.1,13.1l-0.6,0l0.3-0.3l-0.1-0.1l0.1,0l1.4-1.3l1,1.4L63.4,13l2.8,1.3l0,1.7L63.1,13.1z M64.7,10.3
		l-2.3-1.6l2,3L64.7,10.3z M54.1,14.9l6.1-4.3L55,10.9L54.1,14.9z M60.2,10.6l0.4,5.7l2-3.1l-0.1-4.3L60.2,10.6z M59.3,8.2l0.9,2.4
		l0.6-1.8L59.3,8.2z M51.7,6.5l-1-0.8L48,7.5L51.7,6.5z M47.6,10.9l4.7-3L48,7.5L47.6,10.9z M39.9,9.2l2.3,1.1L41,7.8L39.9,9.2z
		 M46.4,5.7L48,7.5l0.8-1.8H46.4z M52.3,7.8l2.7,3L53.9,8L52.3,7.8z M55.5,8.8L55,10.9l1.9-1.6L55.5,8.8z M43,6.4l-2,1.4l7-0.4
		l-4-0.8L43,6.4z"/>
	<path fill="#86B6FD" d="M47.6,10.9l-8.4,2.8l3.1-3.4L47.6,10.9z M46.6,15l2.4,0.6l-1.4-4.7L46.6,15z M49,15.6l3,5.3l2.1-5.9
		L49,15.6z M36.3,16l2.9-2.3l-3.6,1.2L36.3,16z M36.3,13.2l2.9,0.5l-0.9-2.6L36.3,13.2z M67.6,17l-3.2,1.7L60.6,17l0.2,3.1l3.6-1.4
		l0,0l3.5-0.1L67.6,17z M61.3,25.8l-0.4-5.7L58.6,21L61.3,25.8z M52,20.8l6.6,0.1L57,18.8L52,20.8z M65.9,26.8l-4.6-1l0.3,2.6
		L65.9,26.8z M69.3,25.1l1.9,1.2l0.8-1.7L69.3,25.1z M45.5,19.3l1.1-4.3l-3.2-0.2L45.5,19.3z"/>
	<path fill="#425A7D" d="M61.6,2.2c-0.2,0.8,0.4,1.4,1.3,1.2c0,0.1,0.1,0.2,0.1,0.3c0.2,0.4,0.4,0.6,0.8,0.7c0.2,0,0.4,0.2,0.6,0.3
		c0.1,0.1,0.1,0.2,0,0.3c0,0-0.2,0.1-0.3,0.1c-0.1,0-0.2,0-0.2,0l-0.1,0.1c0.1,0,0.2,0.1,0.3,0.1c0.4,0.3,0.7,0.6,1.1,0.9
		c0.2,0.1,0.2,0.3,0.1,0.4c-0.3,0.5-1,0.9-1.6,0.7c-0.6-0.2-1.2-0.4-1.8-0.7c-0.5-0.2-1.1-0.5-1.7-0.5c-0.5,0-0.9,0-1.4-0.1
		c-0.2,0-0.4-0.1-0.6-0.2c-0.2-0.1-0.3-0.3-0.4-0.4c0,0-0.1-0.1-0.1-0.1c0,0-0.1,0-0.1,0c-1.3,0-2.3-0.5-3-1.5
		c-0.2-0.3-0.4-0.6-0.6-1c-0.5-0.6-1.1-0.8-1.9-0.5c-0.4,0.2-0.9,0.4-1.3,0.6c-0.7,0.4-1.4,0.6-2.2,0.3c-0.2-0.1-0.5-0.1-0.7,0.1
		c0.2,0.4,0.1,0.7-0.4,0.7c-0.6,0.1-1.2,0.2-1.9,0.2c-0.4,0-0.4,0-0.5-0.4c-1.2-0.2-2.7,0.5-4,1.6c-0.1-0.1-0.2-0.3-0.3-0.4
		c-0.2-0.2-0.4-0.2-0.6,0c-0.2,0.2-0.6,0.2-0.6,0.6c0,0-0.2,0-0.4,0c-0.1,0-0.2-0.1-0.3,0c-0.2,0.1-0.4,0.2-0.6,0.4
		c-0.8,1-1.8,1.5-2.9,2c-0.8,0.3-1.6,0.6-2.4,0.9c-0.1,0-0.2,0-0.4,0C39.2,0.7,51.4-2.6,61.6,2.2z M45.5,19.3l6.5,1.6l-6.5,1.8V19.3
		z M43.4,14.9L39.6,18l6,1.3L43.4,14.9z M36.3,16l-0.9,1.9l4.1,0.2l-0.4-4.3L36.3,16z M66.1,23.4l3.5-4.7l-1.6,0L66.1,23.4z
		 M69.6,18.7l0.8,3.5l1.6-0.8L69.6,18.7z M73.1,20.7l-1.1,0.6l1.1,0.9L73.1,20.7z M71.9,24.6l-1.5-2.4l-1.2,2.9L71.9,24.6z M69.9,27
		l-0.7-1.9l-0.5,3.2L69.9,27z M68.4,29.3l0.3-0.9l-2.8-1.5L67,30L68.4,29.3z M65.9,26.8l3.4-1.8l-3.1-1.7L65.9,26.8z M61.3,25.8
		l4.9-2.4l-1.7-4.6L61.3,25.8z M54.6,24.7L52,20.8l-1.2,5l3.7-1l-2.9,1.5l0.2,1.2L54.6,24.7l-2.8,2.8l4.3-0.5l0.1,0l-4.7,2.5l1.2,1
		l3.6-3.5l5.3,1.3l-0.3-2.6l-5,1.2L54.6,24.7L54.6,24.7l6.7,1.1L58.6,21L54.6,24.7z M53,32.2l4.5,0.4l-4.9-2L53,32.2z M52.7,35.9
		l3.7,1.5l-2.8-3.1L52.7,35.9z M52.2,38.8l4.2-1.3h-4.6L52.2,38.8z M52.6,41.1l3.7-3.7l-3.8,2.4L52.6,41.1z M55,41.8l-2.4-0.6l0,1.1
		L55,41.8z M52.7,43.1l2.3-1.4l0,0l-2,2.8l1-0.1l1-0.1l0.5-0.4L55,41.8l0,0l0,0l0,0l0,0h0l-2.3,0.5V43.1z M60.5,40.5l0.5-1.2
		l-3.1,1.3l0.8,1L60.5,40.5z M57.9,40.6l3.7-4.5l-5.2,1.4L57.9,40.6z M61.6,38.7l-0.1-2.7l-0.6,3.2L61.6,38.7z M65.4,36.1h-3.8
		l2.6,1L65.4,36.1z M66.1,33.9l-0.4-1.2l-4.1,3.3l4.5-1.1V33.9z M61.6,36.1v-7.6l-4,4.2L61.6,36.1z M45.5,22.6l-0.7,2.9l3-1.1
		l1.3,1.2l2.9-4.7l-4.1,3.6L45.5,22.6z M42.5,25.1l2.3,0.3l-3.6-4.6L42.5,25.1z M37.2,22.8l4.1-1.9l-5.1,0.5L37.2,22.8z M35.3,20.3
		l0.9,1.1l3.4-3.4L35.3,20.3z M40.8,25.7l0.5-4.8l-2.5,3.4L40.8,25.7z M46.6,15l-1.1,4.3l3.5-3.7L46.6,15z"/>
	<path fill="#122A4D" d="M44,30.8c0.1-0.8,0.3-1.5,0.4-2.3c0-0.1,0-0.1,0-0.2c0-0.3,0.2-0.3,0.4-0.3c1,0,2,0,3.1,0
		c0.4,0,0.4,0,0.4,0.4c-0.3,1.7-0.6,3.5-0.9,5.2c-0.3,1.7-0.6,3.3-0.8,5c-0.3,1.9-0.6,3.8-1,5.8c-0.1,0.6-0.2,1.2-0.3,1.8
		c0,0.2-0.1,0.3-0.3,0.3c-2.1,0-4.2,0-6.3-0.1c-0.1,0-0.3-0.1-0.3-0.2c-0.8-1.3-1.6-2.7-2.4-4c-0.4-0.6-0.7-1.2-1.1-1.8
		c-0.1-0.1-0.3-0.2-0.4-0.2c-2,0-4,0-5.9,0h-0.9c-0.2,0-0.2,0-0.3,0.2c-0.3,1.9-0.6,3.8-0.9,5.7c0,0.1-0.1,0.2-0.2,0.3
		c-0.1,0.1-0.2,0.1-0.3,0.1c-5.4,0-10.7,0-16.1,0c-0.1,0-0.2,0-0.3,0c0.1-0.1,0.1-0.2,0.2-0.3c1-1.3,2.1-2.6,3.1-3.9
		c0.1-0.1,0.1-0.1,0.2-0.2c0.1,0,0.2-0.1,0.3-0.1c2,0,4,0,5.9,0h0.4c-1.3-3.1-2.6-6.1-3.9-9.2c-0.2,0.2-0.3,0.3-0.4,0.4
		c-1.5,1.8-3,3.7-4.4,5.6c-2,2.5-4,5-6,7.4c-0.1,0.1-0.2,0.2-0.3,0.2c-1.5,0-2.9,0-4.4,0c-0.1,0-0.1,0-0.2,0
		c0.2-0.3,0.4-0.5,0.6-0.8c1.2-1.5,2.5-3.1,3.7-4.6c2.6-3.3,5.2-6.6,7.9-9.8c0.5-0.6,0.9-1.1,1.4-1.7c0.5-0.7,1.2-1.2,2-1.5
		c1.4-0.4,2.9,0.1,3.5,1.5c1.4,3.4,2.9,6.7,4.3,10.1c0,0.1,0.1,0.3,0.2,0.4c0.1-0.6,0.2-1.3,0.3-1.9c0.1-0.7,0.2-1.3,0.3-2
		c0-0.2,0.2-0.3,0.4-0.3c4.6,0,9.1,0,13.7,0c0.9,0,1.6-0.4,2-1.3c0.2-0.5,0.3-1,0.1-1.5c-0.2-0.6-0.7-0.9-1.4-0.9l-7.8,0h-6.3
		c0,0,0-0.1-0.1-0.1c0.2-0.1,0.3-0.3,0.5-0.4c1.2-1.2,2.5-2.3,3.7-3.5c0.1-0.1,0.1-0.1,0.2-0.2c0.1,0,0.2-0.1,0.3,0
		c3.4,0,6.9,0,10.3,0c1.9,0,3.2,0.9,4,2.6C43.9,30.6,43.9,30.7,44,30.8L44,30.8z M41.8,43.6L41.8,43.6l1.1-6.1c-0.5,0.5-1,1-1.5,1.4
		c-0.5,0.4-1.2,0.7-1.8,1.1L41.8,43.6z M67.4,37.2c-0.5-0.1-0.7-0.5-0.4-0.9c0.2-0.2,0.4-0.4,0.6-0.6c0.2-0.2,0.5-0.4,0.8-0.6
		c0.5-0.4,0.7-0.9,0.5-1.6c-0.1-0.3-0.2-0.6-0.3-0.9c-0.4-0.9-0.2-1.6,0.5-2.3c0.3-0.3,0.6-0.5,0.6-1c0.1-0.8,0.6-1.3,1.2-1.6
		c0.6-0.4,1.3-0.8,1.9-1.3c0.4-0.2,0.7-0.6,0.9-1c0.1-0.3,0.3-0.6,0.6-0.8c0.2-0.2,0.5-0.4,0.8-0.5c0.1,0,0.3-0.1,0.4-0.1
		c0,0.4,0,0.7,0,1.1c-0.4,5.9-2.5,11-6.6,15.3c-3.6,3.9-8.1,6.2-13.3,7.2c-1.4,0.3-2.9,0.5-4.4,0.4c-0.2,0-0.4-0.1-0.6-0.2
		c-0.2-0.1-0.3-0.2-0.4-0.4c-0.2-0.2-0.1-0.4,0.2-0.5c0.4-0.2,0.8-0.3,1.2-0.4c0.8-0.3,1.5-0.5,2.3-0.7c0.3-0.1,0.6-0.1,0.9-0.1
		c0.7,0.1,1.3-0.2,1.8-0.6c0.7-0.5,1.3-1.1,2-1.6c0.8-0.6,1.6-1.1,2.4-1.5c0.6-0.4,1.1-0.8,1.4-1.5c0.1-0.2,0.2-0.4,0.3-0.6
		c0.4-0.8,1-1.2,1.8-1.3c0.5-0.1,1.1-0.2,1.6-0.3C66.7,38.1,67.2,37.8,67.4,37.2z M74.9,18.7l-0.5,0.1c-0.1-0.3-0.3-0.6-0.4-0.8
		c-0.1-0.1-0.2-0.2-0.3-0.3c-0.1,0.1-0.2,0.2-0.2,0.3c-0.1,0.3-0.2,0.7-0.6,0.7c-0.2,0-0.3,0-0.5,0c-0.2,0-0.3-0.1-0.5-0.2
		c-0.1-0.1-0.3-0.1-0.4-0.1c-0.4,0-0.7-0.1-1-0.4c-0.2-0.2-0.3-0.3-0.5-0.5c-0.3-0.2-0.6-0.4-0.9-0.5c-0.8-0.2-1.6-1.4-1.5-2.3
		c0-0.2,0.1-0.3,0.2-0.5c0.1-0.2,0.2-0.3,0.4-0.4c0.9-0.6,1-0.7,0.6-1.7c-0.1-0.1-0.1-0.3-0.1-0.5c-0.1-0.3,0.1-0.5,0.3-0.6
		c0.4-0.3,0.5-0.5,0.3-1c-0.1-0.2-0.2-0.3-0.3-0.5c-0.3-0.6-0.2-1.1,0.4-1.4c0,0,0.1-0.1,0.1-0.1C72.2,11.2,74,14.7,74.9,18.7z
		 M47.6,10.9L47.6,10.9l-5.4-0.6L48,7.5L47.6,10.9l4.7-3l2.7,3H47.6z M54.1,14.9l0.9-4.1l-6,4.7L54.1,14.9z M45.5,19.3l6.5,1.6
		l-3-5.3L45.5,19.3z M45.5,19.3l-6-1.3l1.7,2.9l0.1,0l4.2,1.7L45.5,19.3L45.5,19.3L45.5,19.3z M39.2,13.7l0.4,4.3l3.8-3.2L39.2,13.7
		z M38.3,11.1l4-0.8l-2.3-1.1L38.3,11.1z M56.8,9.3L55,10.9l5.2-0.3L56.8,9.3z M60.2,16.9L60,17.2l6.3-1.1l-3.5-3.3l-2.2,3.5
		l-0.4-5.7l-6.1,4.3L60.2,16.9z M64.5,18.8l1.7,4.6l1.9-4.7L64.5,18.8z M70.4,22.2l1.5,2.4l0.1-3.2L70.4,22.2z M66.1,23.4l3.1,1.7
		l1.2-2.9l-0.8-3.5L66.1,23.4z M65.9,26.8l0.2-3.4l-4.9,2.4L65.9,26.8z M60.8,20.1l0.4,5.7l3.2-7.1L60.8,20.1z M52,20.8l2.5,3.9
		l4.1-3.8L52,20.8z M56.1,27l1.5,5.7l4-4.2L56.6,27l4.6-1.2l-6.7-1.1L56.1,27z M65.7,32.7l-4.1-4.3v7.6L65.7,32.7z M55,41.8l2.9-1.2
		l-1.5-3.1L55,41.8z M60.9,39.3l0.6-3.2l-3.7,4.5L60.9,39.3z M64.2,37l-2.6-1l1.2,2L64.2,37z M56.4,37.4l5.2-1.4l-4-3.5L56.4,37.4z
		 M54.1,14.9L52,20.8l5-2.1L54.1,14.9z M47.6,10.9l-4.2,4l3.2,0.2L47.6,10.9z"/>
	<path fill="#0071BC" d="M49.2,16.2c0.5,0,0.8-0.4,0.8-0.8s-0.4-0.8-0.8-0.8c-0.5,0-0.8,0.4-0.8,0.8S48.7,16.2,49.2,16.2z M60.4,18
		c0.6,0,1-0.5,1-1s-0.5-1-1-1c-0.6,0-1,0.5-1,1S59.8,18,60.4,18z M47.9,24.9c0.3,0,0.5-0.2,0.5-0.5c0-0.3-0.2-0.5-0.5-0.5
		s-0.5,0.2-0.5,0.5C47.4,24.7,47.7,24.9,47.9,24.9z M47.9,8.2c0.3,0,0.5-0.2,0.5-0.5s-0.2-0.5-0.5-0.5s-0.5,0.2-0.5,0.5
		S47.6,8.2,47.9,8.2z M60.2,11.1c0.3,0,0.5-0.2,0.5-0.5c0-0.3-0.2-0.5-0.5-0.5c-0.3,0-0.5,0.2-0.5,0.5
		C59.7,10.9,59.9,11.1,60.2,11.1z M45.7,20.1c0.6,0,1-0.5,1-1c0-0.6-0.5-1-1-1c-0.6,0-1,0.5-1,1C44.7,19.7,45.1,20.1,45.7,20.1z"/>
	<path fill="#00FFFF" d="M42.1,11.3c0.5,0,0.8-0.4,0.8-0.8c0-0.5-0.4-0.8-0.8-0.8c-0.5,0-0.8,0.4-0.8,0.8
		C41.3,10.9,41.7,11.3,42.1,11.3z M47.6,11.4c0.3,0,0.6-0.3,0.6-0.6s-0.3-0.6-0.6-0.6S47,10.5,47,10.9S47.3,11.4,47.6,11.4z
		 M54.1,15.5c0.3,0,0.5-0.2,0.5-0.5c0-0.3-0.2-0.5-0.5-0.5c-0.3,0-0.5,0.2-0.5,0.5C53.6,15.2,53.8,15.5,54.1,15.5z M54.7,11.5
		c0.3,0,0.6-0.2,0.6-0.6c0-0.3-0.2-0.6-0.6-0.6c-0.3,0-0.6,0.2-0.6,0.6C54.1,11.2,54.4,11.5,54.7,11.5z M64.5,19.3
		c0.3,0,0.5-0.2,0.5-0.5c0-0.3-0.2-0.5-0.5-0.5c-0.3,0-0.5,0.2-0.5,0.5C63.9,19.1,64.2,19.3,64.5,19.3z M53.6,34.8
		c0.3,0,0.5-0.2,0.5-0.5c0-0.3-0.2-0.5-0.5-0.5S53,34,53,34.3C53,34.6,53.3,34.8,53.6,34.8z M62.7,13.5c0.3,0,0.5-0.2,0.5-0.5
		c0-0.3-0.2-0.5-0.5-0.5s-0.5,0.2-0.5,0.5C62.2,13.2,62.4,13.5,62.7,13.5z M66,23.9c0.4,0,0.8-0.4,0.8-0.8c0-0.4-0.4-0.8-0.8-0.8
		s-0.8,0.4-0.8,0.8C65.2,23.5,65.6,23.9,66,23.9z M39.5,18.9c0.4,0,0.8-0.4,0.8-0.8c0-0.4-0.4-0.8-0.8-0.8c-0.4,0-0.8,0.4-0.8,0.8
		C38.7,18.6,39,18.9,39.5,18.9z M61.3,26.7c0.6,0,1-0.5,1-1c0-0.6-0.5-1-1-1c-0.6,0-1,0.5-1,1C60.3,26.3,60.7,26.7,61.3,26.7z
		 M74.9,20.8c0.5,0,1-0.4,1-1s-0.4-1-1-1c-0.5,0-1,0.4-1,1S74.4,20.8,74.9,20.8z M62.5,3.6c0.5,0,1-0.4,1-1s-0.4-1-1-1s-1,0.4-1,1
		S62,3.6,62.5,3.6z M55.1,42.8c0.6,0,1-0.5,1-1s-0.5-1-1-1c-0.6,0-1,0.5-1,1S54.5,42.8,55.1,42.8z"/>
</g>
</svg>
