<?xml version="1.0" encoding="utf-8"?>
<!-- Generator: Adobe Illustrator 27.0.1, SVG Export Plug-In . SVG Version: 6.00 Build 0)  -->
<svg version="1.1" id="Layer_1" xmlns="http://www.w3.org/2000/svg" xmlns:xlink="http://www.w3.org/1999/xlink" x="0px" y="0px"
	 width="384px" height="384px" viewBox="0 0 384 384" enable-background="new 0 0 384 384" xml:space="preserve">
<path d="M0,317.2C0,243.5,0,169.8,0,96c0.2-0.8,0.6-1.6,0.7-2.4C5.1,59.6,34,32.1,68.1,30c6.7-0.4,13.4-0.1,20.4-0.1
	c0-4.2,0.2-7.6,0-10.9c-0.7-9.4,3-15.9,12.1-19c2,0,4,0,6,0c9.2,3.3,12.8,10,12,19.5c-0.3,3.2,0,6.4,0,9.8c49.2,0,97.9,0,147.1,0
	c0-3.4,0.2-6.6,0-9.8c-0.8-9.5,2.8-16.2,12-19.5c2,0,4,0,6,0c9,3.1,12.8,9.6,12.1,19c-0.3,3.4,0,6.9,0,10.5c4.7,0,8.8,0,12.9,0
	c35.3,0.5,64,22,73,54.9c1,3.8,1.7,7.7,2.6,11.6c0,73.8,0,147.5,0,221.2c-0.2,0.7-0.6,1.4-0.7,2.1c-4.1,30.8-26.4,55.4-56.7,62.6
	c-3.4,0.8-6.8,1.4-10.2,2.1c-83,0-166,0-249,0c-0.7-0.2-1.4-0.6-2.1-0.6c-31.5-4-56.5-26.5-63.6-57.4C1.1,323.1,0.6,320.2,0,317.2z
	 M30,148.1c0,1.7,0,2.9,0,4.2c0,52.1,0,104.2,0,156.3c0,25.9,19.2,45.3,45.2,45.3c77.9,0.1,155.7,0.1,233.6,0
	c26,0,45.2-19.4,45.2-45.4c0-52.1,0-104.2,0-156.3c0-1.3,0-2.6,0-4.1C245.8,148.1,138.1,148.1,30,148.1z M30.3,117.7
	c108,0,215.7,0,323.5,0c5-46.8-28.1-62.5-58.2-57.5c0,9.5,0.1,19,0,28.4c-0.1,8.2-6,14.5-13.8,15c-8.9,0.6-16-5.9-16.1-14.9
	c-0.1-9.6,0-19.2,0-29c-49.1,0-97.9,0-147.1,0c0,1.6,0,2.9,0,4.3c0,8.2,0.1,16.5,0,24.7c-0.1,8.6-6.7,15-15,14.9
	c-8.4,0-14.8-6.4-14.9-15.1c-0.1-4.4,0-8.7,0-13.1c0-5.2,0-10.4,0-15.6C52.9,55.4,25.6,75.2,30.3,117.7z M88.6,280.5
	c-8.3,0.2-14.8,6.6-14.9,14.7c-0.2,8.1,6.4,15.1,14.8,15.2c10,0.2,20,0.2,30,0c8.3-0.2,14.7-6.8,14.7-14.9c0-8.2-6.5-14.8-15-15
	c-4.9-0.1-9.7,0-14.6,0C98.6,280.5,93.6,280.4,88.6,280.5z M265.7,280.5c-8.3,0.2-14.7,6.6-14.9,14.8c-0.1,8.2,6.4,15,14.9,15.2
	c9.9,0.2,19.7,0.1,29.6,0c8.5-0.1,15.1-6.8,15.1-15c0-8.2-6.6-14.8-15.1-15c-4.9-0.1-9.7,0-14.6,0
	C275.7,280.5,270.7,280.4,265.7,280.5z M295.4,222c8.5-0.2,15-6.9,15-15.1c-0.1-8.2-6.7-14.8-15.2-14.8c-9.7-0.1-19.5-0.1-29.2,0
	c-8.5,0.1-15.1,6.6-15.1,14.9c-0.1,8.2,6.5,14.8,15,15c4.9,0.1,9.7,0,14.6,0C285.4,222,290.4,222.1,295.4,222z M118.2,222
	c8.5-0.2,15-6.9,15-15.1c-0.1-8.3-6.6-14.8-15.1-14.9c-9.7-0.1-19.5-0.1-29.2,0c-8.5,0.1-15.1,6.7-15.2,14.9
	c-0.1,8.2,6.5,14.9,15,15.1c4.9,0.1,9.7,0,14.6,0C108.3,222,113.2,222.1,118.2,222z M206.7,222c8.5-0.2,15-6.8,14.9-15.1
	c-0.1-8.3-6.6-14.8-15.1-14.9c-9.7-0.1-19.5-0.1-29.2,0c-8.5,0.1-15.1,6.6-15.2,14.9c-0.1,8.2,6.5,14.9,15,15.1
	c4.9,0.1,9.7,0,14.6,0C196.7,222,201.7,222.1,206.7,222z M176.9,280.5c-8.3,0.2-14.7,6.8-14.8,14.9c0,8,6.4,14.9,14.6,15
	c10.1,0.2,20.2,0.2,30.3,0c8.3-0.2,14.6-7,14.5-15.1c-0.1-8.2-6.5-14.6-14.8-14.8c-4.9-0.1-9.7,0-14.6,0
	C187.1,280.5,182,280.4,176.9,280.5z"/>
</svg>
