<?xml version="1.0" encoding="utf-8"?>
<!-- Generator: Adobe Illustrator 27.0.1, SVG Export Plug-In . SVG Version: 6.00 Build 0)  -->
<svg version="1.1" id="Layer_1" xmlns="http://www.w3.org/2000/svg" xmlns:xlink="http://www.w3.org/1999/xlink" x="0px" y="0px"
	 width="512px" height="512px" viewBox="0 0 512 512" enable-background="new 0 0 512 512" xml:space="preserve">
<path d="M269.5,0c11.8,1.7,23.8,2.9,35.5,5.1c34.7,6.4,66.4,20.2,95.5,40.1c9.3,6.4,11.6,18.1,5.8,27.3c-5.8,9.1-17.7,12.2-27.2,6.1
	c-17.9-11.4-36.3-21.7-56.7-27.9c-68.7-20.9-133.1-11.8-192,29.7C87.4,110.7,58.9,151.8,46.2,203c-15.3,61.8-5.7,120,29.8,172.8
	c35.3,52.5,85,84.3,147.8,93.8c47.6,7.2,92.8-1.2,135.2-24.1c2.9-1.6,5.8-3.3,8.8-4.8c10.2-5.2,21.5-2.1,26.9,7.3
	c5.6,9.6,2.9,21.9-7.4,27.2c-15.9,8.2-32.1,16.2-48.8,22.7c-20.5,8-42.3,11.8-64.3,13.4c-1.3,0.1-2.6,0.5-3.9,0.8c-10,0-20,0-30,0
	c-10.7-1.4-21.5-2.4-32.1-4.4C108.3,489.5,27,410.8,5.5,311.3c-2-9.1-3.4-18.2-5.1-27.3c0-18.7,0-37.3,0-56c1.2-6.7,2.2-13.4,3.5-20
	c9.8-51,33-95,69.4-131.9c38.3-38.6,84.2-62.9,137.9-72.2c9.6-1.7,19.4-2.6,29.1-3.9C250.1,0,259.8,0,269.5,0z M297.7,333.9
	c62.7-78,125.5-156,188.2-234.1c7.4-9.2,15-18.3,22-27.8c5.6-7.7,4.6-17.5-1.7-24.4c-6-6.7-16-8.9-23.7-4.3
	c-4.3,2.6-7.8,6.7-11,10.6C403.8,138,336.2,222.2,268.6,306.3c-7.8,9.7-13.8,10.1-22.7,1.6c-33.4-31.6-66.7-63.3-100.1-94.9
	c-9.6-9.1-21.6-9.3-29.8-0.7c-8.1,8.6-7.3,20.6,2.3,29.7c33.8,32.1,67.7,64.2,101.5,96.3c10.6,10.1,23,15.6,40.7,15.7
	C274,353.4,287.4,346.8,297.7,333.9z M503.5,192.7c-3.3-12.1-15-18.5-26.3-14.4c-10.1,3.7-14.9,13.5-12.1,25.3
	c8.2,34.1,8.5,68.2,0.4,102.4c-6,25-16.6,48-30.4,69.7c-6.5,10.2-3.7,22.5,5.5,28.1c10.2,6.2,21.7,3.2,28.5-7.3
	c27-41.7,41.3-87.3,42.2-137C511.9,239.2,508.6,211.7,503.5,192.7z"/>
</svg>
