<?xml version="1.0" encoding="utf-8"?>
<!-- Generator: Adobe Illustrator 27.0.1, SVG Export Plug-In . SVG Version: 6.00 Build 0)  -->
<svg version="1.1" id="Layer_1" xmlns="http://www.w3.org/2000/svg" xmlns:xlink="http://www.w3.org/1999/xlink" x="0px" y="0px"
	 width="384px" height="384px" viewBox="0 0 384 384" enable-background="new 0 0 384 384" xml:space="preserve">
<path d="M59.9,177.6c4.6-0.2,8.4,2.3,11.9,5.5c23.9,21.6,47.9,43.2,72,64.6c2.9,2.5,6.6,4.7,10.3,5.5c5.9,1.4,10.9-1.3,15-5.8
	c25.2-28.1,50.5-56.1,75.8-84.1c22.5-25,45-49.9,67.6-74.9c5.3-5.8,12-7.4,18.6-4.6c6.3,2.7,10.6,9,9.5,15.8
	c-0.6,3.7-2.4,7.7-4.9,10.5c-28.9,32.5-58.1,64.7-87.2,97c-26.1,29-52.2,57.9-78.3,86.9c-8.3,9.2-17.4,9.6-26.3,1.2
	c-31.5-29.6-62.9-59.3-94.4-88.9c-4.6-4.3-7-9.3-5.8-15.7C45,183,51.6,177.6,59.9,177.6z"/>
</svg>
