<?xml version="1.0" encoding="utf-8"?>
<!-- Generator: Adobe Illustrator 27.0.1, SVG Export Plug-In . SVG Version: 6.00 Build 0)  -->
<svg version="1.1" id="Layer_1" xmlns="http://www.w3.org/2000/svg" xmlns:xlink="http://www.w3.org/1999/xlink" x="0px" y="0px"
	 width="512px" height="512px" viewBox="0 0 512 512" enable-background="new 0 0 512 512" xml:space="preserve">
<path d="M0,82.9C2.4,73.4,5.2,64,11.3,56C23.2,40.5,38.9,32,58.5,32c88.5-0.2,177-0.1,265.4-0.1c10.2,0,17.3,6.7,17.3,16
	c0,9.4-7.1,16-17.3,16c-87.1,0-174.3,0-261.4,0c-20,0-30.5,10.5-30.5,30.5c0,107.8,0,215.6,0,323.5c0,19.4,10.6,30.1,29.9,30.1
	c108.1,0,216.3,0,324.4,0c18.9,0,29.7-10.8,29.7-29.8c0-59,0-118,0-177c0-12.4,10.5-20.3,21.4-16.3c6.4,2.3,10.4,8.2,10.5,15.5
	c0.1,10,0,20,0,30c0,49.3,0,98.7,0,148c0,36.4-25.2,61.5-61.6,61.5c-108,0-216-0.3-323.9,0.2c-33.1,0.2-57.9-22.7-61.7-49.9
	c-0.1-0.4-0.5-0.8-0.7-1.3C0,313.6,0,198.2,0,82.9z M512,43.9c-1.7-2.6-3.1-5.5-5.3-7.7c-6.8-6.6-16-5.6-23.8,2.2
	c-72.3,72.3-144.7,144.7-217,217.1c-1.4,1.4-2.5,3.1-4.6,5.7c-1.9-2.4-2.9-4.2-4.3-5.6c-25.8-25.8-51.6-51.6-77.4-77.4
	c-1.3-1.3-2.5-2.7-4-3.8c-5-4-10.6-4.8-16.4-2.5c-5.9,2.4-9.1,7.1-9.7,13.4c-0.6,6,2.3,10.4,6.4,14.5c30.5,30.3,60.8,60.8,91.2,91.2
	c10.3,10.3,18.2,10.3,28.5-0.1C351.5,215,427.4,139.1,503.2,63.2c3.3-3.3,5.9-7.5,8.8-11.3C512,49.2,512,46.6,512,43.9z"/>
</svg>
