<?xml version="1.0" encoding="utf-8"?>
<!-- Generator: Adobe Illustrator 27.0.1, SVG Export Plug-In . SVG Version: 6.00 Build 0)  -->
<svg version="1.1" id="Layer_1" xmlns="http://www.w3.org/2000/svg" xmlns:xlink="http://www.w3.org/1999/xlink" x="0px" y="0px"
	 width="512px" height="512px" viewBox="0 0 512 512" enable-background="new 0 0 512 512" xml:space="preserve">
<path d="M212,0c29.3,0,58.7,0,88,0c6.1,2.5,7.9,7.4,7.8,13.6c-0.2,9.3,0,18.6-0.1,28c0,2.6,0.8,3.8,3.4,4.5
	c5.9,1.6,11.9,3.1,17.6,5.5c13.5,5.6,26.7,11.7,40.8,17.9c6.7-6.7,14.1-14.2,21.5-21.5c7.2-7.2,11.9-7.2,19.1,0c18,18,36,36,54,54
	c7.2,7.2,7.2,11.9,0,19.1c-7.4,7.4-14.8,14.8-22.4,22.3c11,18.5,19.3,37.9,24.7,58.4c0.3,1.1,2.7,2.3,4.1,2.3
	c9.3,0.2,18.6,0.2,28,0.1c6.2-0.1,11.1,1.7,13.6,7.8c0,29.3,0,58.7,0,88c-2.5,6.1-7.4,7.9-13.6,7.8c-9.3-0.2-18.6,0-28-0.1
	c-2.6,0-3.8,0.8-4.5,3.4c-1.6,5.9-3.1,11.9-5.5,17.6c-5.6,13.5-11.7,26.7-17.9,40.7c6.7,6.7,14.2,14.1,21.5,21.5
	c7.2,7.2,7.2,11.9,0,19.1c-18,18-36,36-54,54c-7.2,7.2-11.9,7.2-19.1,0c-7.4-7.4-14.8-14.8-22.3-22.4c-18.6,11-37.9,19.3-58.4,24.7
	c-1.1,0.3-2.3,2.7-2.3,4.1c-0.2,9.3-0.2,18.6-0.1,28c0.1,6.2-1.8,11.1-7.8,13.6c-29.3,0-58.7,0-88,0c-6.1-2.5-7.9-7.4-7.8-13.6
	c0.2-9.3,0-18.6,0.1-28c0-2.6-0.7-3.9-3.4-4.5c-5.1-1.3-10.4-2.6-15.2-4.6c-14.2-5.9-28.3-12.2-43.2-18.7
	c-6.6,6.6-14,14.1-21.4,21.4c-7.2,7.2-11.9,7.2-19.1,0c-18-18-36-36-54-54c-7.2-7.2-7.2-11.9,0-19.1c7.4-7.4,14.8-14.8,22.4-22.3
	c-11-18.5-19.3-37.9-24.7-58.4c-0.3-1.1-2.7-2.3-4.1-2.3c-9.3-0.2-18.6-0.2-28-0.1C7.4,307.9,2.5,306.1,0,300c0-29.3,0-58.7,0-88
	c2.5-6.1,7.4-7.9,13.6-7.8c9.3,0.2,18.6,0,28,0.1c2.6,0,3.8-0.8,4.5-3.4c1.6-5.9,3.1-11.9,5.5-17.6c5.6-13.5,11.7-26.7,17.9-40.7
	c-6.7-6.7-14.2-14.1-21.6-21.5c-7.2-7.2-7.2-11.9,0-19.1c18-18,36-36,54-54c7.2-7.2,11.9-7.1,19.1,0c7.4,7.4,14.8,14.8,22.3,22.4
	c18.6-11,37.9-19.3,58.4-24.7c1.1-0.3,2.3-2.7,2.3-4.1c0.2-9.3,0.2-18.6,0.1-28C204.1,7.4,205.9,2.5,212,0z M491.9,224.2
	c-10.3,0-20.1,0-29.9,0c-8.6,0-11.5-1.9-13.4-10.2c-5.3-23.1-14.3-44.6-26.9-64.7c-4.3-6.9-3.7-10.5,2.1-16.4
	c7-7.1,14.1-14.1,20.9-20.9c-15.1-15-29.9-29.8-45.2-45.1c-3.3,3.5-6.8,7.3-10.4,11c-3.6,3.7-7.2,7.4-11,11c-5,4.8-8.8,5.3-14.8,1.9
	c-6.1-3.4-12-7.2-18.2-10.4c-14.9-7.7-30.5-13-46.8-16.8c-8.7-2-10.6-4.8-10.7-13.6c0-5.5,0-11,0-16.5c0-4.4,0-8.8,0-13.2
	c-21.6,0-42.3,0-63.5,0c0,9.9,0,19.6,0,29.2c0,9.3-1.9,12-10.7,14c-22.8,5.2-44,14.1-63.8,26.4c-7.4,4.6-10.9,4-17.1-2.2
	c-7-6.9-13.9-13.9-20.4-20.5c-15.1,15-29.9,29.8-45,44.7c7,7,14.3,14.1,21.4,21.3c5.3,5.4,5.7,9.1,2,15.6c-3.5,6.1-7.2,12-10.4,18.2
	c-7.6,14.7-12.9,30.3-16.6,46.4c-2,8.7-4.8,10.6-13.6,10.7c-5.5,0-11,0-16.5,0c-4.4,0-8.8,0-13.2,0c0,21.6,0,42.3,0,63.5
	c9.9,0,19.6,0,29.2,0c9.3,0,12,1.9,14,10.7c5.2,22.8,14.1,44,26.4,63.8c4.6,7.4,4,10.9-2.2,17.1c-6.9,7-13.9,13.9-20.5,20.4
	c15,15.1,29.8,29.9,44.8,45c7-7,14.1-14.3,21.3-21.4c5.4-5.3,9.1-5.7,15.6-2c6.1,3.5,12,7.2,18.2,10.4c14.7,7.6,30.3,12.9,46.4,16.6
	c8.7,2,10.6,4.8,10.7,13.6c0,5.7,0,11.3,0,17c0,4.2,0,8.5,0,12.6c21.6,0,42.3,0,63.5,0c0-9.9,0-19.6,0-29.2c0-9.3,1.9-12,10.7-14
	c22.8-5.2,44-14.1,63.8-26.4c7.4-4.6,10.9-4,17.1,2.2c7,6.9,13.9,13.9,20.5,20.6c15.1-15.1,29.8-29.9,44.9-45
	c-7-7-14.4-14.2-21.7-21.5c-4.9-5-5.3-8.7-1.9-14.8c3.5-6.2,7.3-12.3,10.6-18.7c7.9-15.1,13.1-31.3,17-47.8
	c1.7-6.9,4.7-9.1,11.6-9.2c5.8-0.1,11.7,0,17.5,0c4.6,0,9.2,0,13.8,0C491.9,266.3,491.9,245.6,491.9,224.2z M279.5,367.6
	c58.8-12.8,97.4-67.4,89.3-126.8c-1.4-10.1-4.9-20-8.1-29.7c-1.8-5.6-7.3-7.8-12.5-6.1c-5.1,1.7-7.6,6.7-6.2,12.5
	c0.6,2.2,1.5,4.4,2.3,6.6c18.8,49.8-10.4,107.7-61.7,122.2c-22,6.2-43.4,4.9-64.5-4c-6.8-2.8-12.4-0.7-14.6,5
	c-2.2,5.6,0.6,10.8,7.4,13.6c14.3,6,29.1,9.2,44.7,9.8C263.7,369.6,271.7,369.3,279.5,367.6z M149.3,296.4c2.1,5.8,7.4,8.4,12.7,6.6
	c5.1-1.7,7.6-6.7,6.2-12.5c-0.5-1.9-1.1-3.8-1.8-5.7c-15.4-45.9,9-98.2,54.2-116c23-9.1,46-9.1,69.2-0.7c7,2.5,12.4,0.4,14.6-5.3
	c2.1-5.6-0.9-10.9-7.7-13.4c-20.8-7.9-42.1-9.6-63.8-5.2c-52.6,10.7-90.8,57.7-90.9,113.7C141.8,269.8,144.5,283.3,149.3,296.4z
	 M338.5,181.4c0-5.3-4.5-9.9-9.8-9.9c-5.4,0-9.8,4.4-9.8,9.8c0,5.5,4.3,9.8,9.8,9.8C334,191.2,338.5,186.8,338.5,181.4z M190.1,328
	c0.3-5.5-3.9-10-9.3-10.3c-5.4-0.2-10,3.8-10.4,9.3c-0.4,5.2,4,10,9.4,10.3C185.3,337.5,189.8,333.4,190.1,328z"/>
</svg>
