<?xml version="1.0" encoding="utf-8"?>
<!-- Generator: Adobe Illustrator 26.3.1, SVG Export Plug-In . SVG Version: 6.00 Build 0)  -->
<svg version="1.1" id="Layer_1" xmlns="http://www.w3.org/2000/svg" xmlns:xlink="http://www.w3.org/1999/xlink" x="0px" y="0px"
	 width="134.1px" height="134.1px" viewBox="0 0 134.1 134.1" enable-background="new 0 0 134.1 134.1" xml:space="preserve">
<path d="M63.1,0.1c2.6,0,5.2,0,7.8,0c0.3,0.1,0.7,0.2,1,0.2c10.5,0.7,20.3,3.7,29.2,9.2c17.3,10.6,28,25.9,31.7,46
	c0.5,2.5,0.7,5.1,1,7.6c0,2.6,0,5.2,0,7.8c-0.1,0.5-0.2,0.9-0.2,1.4c-0.4,2.9-0.7,5.8-1.3,8.6c-3.5,16.1-11.7,29.2-24.8,39.1
	C91.3,132.4,73,136.5,53,132.4c-16-3.3-29-11.7-39-24.7C3.3,93.7-1.2,77.8,0.5,60.3c1.4-14.2,6.9-26.7,16.3-37.4
	c10.4-11.7,23.3-19,38.7-21.8C58,0.7,60.6,0.5,63.1,0.1z M24.2,32.9C7.8,52.4,6.3,86.5,30.9,108.3c22.9,20.2,53.9,15.7,70.2,1.6
	C75.4,84.2,49.8,58.5,24.2,32.9z M109.9,101.2c17.4-21.3,16.9-55.3-7.5-76.1C79.9,6,49.7,9.8,32.9,24.2
	C58.5,49.9,84.2,75.5,109.9,101.2z"/>
</svg>
