<?xml version="1.0" encoding="utf-8"?>
<!-- Generator: Adobe Illustrator 27.0.1, SVG Export Plug-In . SVG Version: 6.00 Build 0)  -->
<svg version="1.1" id="Layer_1" xmlns="http://www.w3.org/2000/svg" xmlns:xlink="http://www.w3.org/1999/xlink" x="0px" y="0px"
	 width="384px" height="384px" viewBox="0 0 384 384" enable-background="new 0 0 384 384" xml:space="preserve">
<path d="M315.5,192.2c-4.7-4.5-8.7-8.4-12.7-12.4C260.6,137.5,218.3,95.3,176.2,53c-2.1-2.2-3.9-5.3-4.5-8.3c-1-4.8,1.6-9,5.8-11.1
	c4.5-2.2,8.7-1.7,12.6,1.3c1,0.8,1.8,1.7,2.7,2.6c47.8,47.8,95.6,95.6,143.5,143.4c7.3,7.3,7.3,14.8,0,22.2
	c-47.9,47.9-95.8,95.8-143.7,143.7c-3.6,3.6-7.4,6-12.6,4.5c-7.9-2.2-11.1-11.4-6.1-17.9c0.9-1.2,2-2.2,3.1-3.3
	c45.1-45.1,90.1-90.1,135.2-135.2C313,194.1,314.1,193.4,315.5,192.2z M182.8,195.1c-45.1,45.1-90.2,90.1-135.2,135.2
	c-1,1-2,1.9-2.8,3c-5.2,6.7-1.9,16.1,6.3,18.1c5.1,1.3,8.8-1.1,12.3-4.6c48-48,95.9-96.1,144.1-143.9c6-6,6.1-16-0.1-22.1
	c-48-47.6-95.7-95.5-143.6-143.3c-1.1-1.1-2.3-2.4-3.6-3.3c-3.8-2.6-7.9-2.9-12-0.6c-4.1,2.3-6.4,6-5.6,10.5
	c0.6,3.1,2.3,6.4,4.5,8.6c42.1,42.4,84.4,84.6,126.7,126.8c4,4,8,7.9,12.8,12.6C185,193.4,183.8,194.2,182.8,195.1z"/>
</svg>
