<?xml version="1.0" encoding="utf-8"?>
<!-- Generator: Adobe Illustrator 27.0.1, SVG Export Plug-In . SVG Version: 6.00 Build 0)  -->
<svg version="1.1" id="Layer_1" xmlns="http://www.w3.org/2000/svg" xmlns:xlink="http://www.w3.org/1999/xlink" x="0px" y="0px"
	 width="400.7px" height="400.7px" viewBox="0 0 400.7 400.7" enable-background="new 0 0 400.7 400.7" xml:space="preserve">
<path d="M0.4,84.2C2.5,78,3.8,71.3,7,65.7c9.5-16.7,24.3-25.3,43.6-25.4c28.9-0.2,57.8-0.1,86.7,0c6.7,0,11.2,4.1,11.3,9.8
	c0.1,5.8-4.7,10-11.5,10c-28.4,0-56.8,0-85.1,0c-15.5,0-26.7,8.4-30.6,22.8c-0.8,3-1,6.2-1,9.3c-0.1,85-0.1,170,0,255
	c0,15.9,8,27.1,22.2,31c3.2,0.9,6.7,1.2,10,1.2c91.6,0.1,183.3,0.1,274.9,0c19.5,0,32.1-12.8,32.2-32.4c0-28.2,0-56.5,0-84.7
	c0-5.7,3-9.9,7.6-10.9c6.1-1.4,11.9,3,12.1,9.4c0.2,7.9,0.1,15.9,0.1,23.8c0,22.5,0.3,45-0.2,67.5c-0.5,24.9-21.7,45.8-46.6,46.9
	c-1.8,0.1-3.6,0.1-5.5,0.1c-91.5,0-183,0-274.5,0c-20,0-35.6-8-45.6-25.4c-3.2-5.6-4.5-12.3-6.6-18.6C0.4,264.9,0.4,174.6,0.4,84.2z
	 M310.2,16.4c-53.7,53.8-107.2,107.8-161.4,161.1c-11.2,11.1-19,22.8-22.5,38.3c-4.9,21.6-11.6,42.9-17.5,64.3
	c-1.5,5.4,0.3,9.7,4.4,12.1c3.4,1.9,6.7,1.2,10.2,0.3c25.9-7.2,51.8-14.5,77.8-21.5c4.4-1.2,8-3.3,11.2-6.5
	C269.8,207,327.3,149.6,384.7,92.1c1.1-1.1,2.2-2.2,3.3-3.4c16.9-18.5,16.5-44.6-0.9-62.7c-4.3-4.5-8.7-9-13.3-13.2
	C365.2,5.2,355.1,1.6,344,1.4C330.4,1.6,319.5,7,310.2,16.4z M347.5,100c-48.1,48.1-96.3,96.3-144.2,144.2
	c-15.1-15.1-30.6-30.6-45.8-45.8c47.7-47.7,96-96,144.2-144.2C316.9,69.4,332.3,84.9,347.5,100z M316,39c7.7-7.3,14-17,26.5-17.5
	c5.9-0.2,11.6,0.9,16,4.9c5.9,5.3,11.7,10.8,16.8,16.8c6.7,7.8,6.9,20.5,0.7,28.7c-3.9,5.1-8.7,9.5-13,14.1
	C347.1,70.1,331.7,54.7,316,39z M132.4,269.3c4.8-17.5,9.5-34.3,14-50.7c12.1,12.1,24.3,24.3,36.6,36.7
	C166.7,259.8,149.9,264.5,132.4,269.3z"/>
</svg>
