<?xml version="1.0" encoding="utf-8"?>
<!-- Generator: Adobe Illustrator 27.0.1, SVG Export Plug-In . SVG Version: 6.00 Build 0)  -->
<svg version="1.1" id="Layer_1" xmlns="http://www.w3.org/2000/svg" xmlns:xlink="http://www.w3.org/1999/xlink" x="0px" y="0px"
	 width="384px" height="384px" viewBox="0 0 384 384" enable-background="new 0 0 384 384" xml:space="preserve">
<path d="M0,189c34.3-56.7,81.7-96.6,147.2-112c43-10.1,85.1-5.7,125.8,11.8c2.9,1.3,4.6,0.8,6.7-1.3c11.7-11.9,23.6-23.7,35.5-35.6
	c3.5-3.5,7.6-4.8,12.3-3.3c4.5,1.3,7.2,4.4,8.2,8.9c1.1,4.8-0.8,8.7-4.3,12.1c-16.2,16.1-32.4,32.3-48.5,48.5
	C212,189,141.1,259.8,70.2,330.8c-3.5,3.5-7.2,6-12.2,5c-4.7-0.8-7.9-3.6-9.4-8.2c-1.5-4.7-0.3-8.9,3.2-12.4c10-10,20-20,30-30
	c1-1,2.1-1.8,3.6-3C49.7,259.6,20.9,231.2,0,195C0,193,0,191,0,189z M132.9,233.3c-22.5-33.2-13-71.3,8.4-92.5
	c21.3-21.1,59.1-30.2,91.6-8.2c8.1-8.1,16.2-16.2,24.2-24.2c0.1,0.1-0.2-0.2-0.5-0.3c-41.2-15.6-82.7-16.6-124.2-1.8
	C88,122.1,54.4,151.6,27.6,189.6c-1.4,2-1,3.2,0.2,4.9c10.1,14.5,21.7,27.8,34.7,39.7c12.3,11.4,25.7,21.4,40.1,29.5
	C112.8,253.5,122.9,243.4,132.9,233.3z M150.9,215.6c21.7-21.7,43.2-43.2,64.7-64.7c-13.4-9.7-39-10.7-56.9,6.6
	C140.9,174.7,140.5,200.4,150.9,215.6z M384,189c-16.5-28.9-38.6-52.8-64.3-72.9c-6.1,6-11.7,11.6-17.5,17.4
	c1.1,0.9,2.4,1.9,3.7,2.9c19.5,15.1,36.2,32.9,50.4,53.1c1.4,2,1.3,3.3,0,5.2c-12.4,17.7-26.6,33.8-43.3,47.5
	c-46.5,38.3-99,54.1-158.9,41.5c-1-0.2-2.5-0.1-3.1,0.5c-6.3,6-12.4,12.2-18.7,18.5c0.9,0.5,1.3,0.8,1.8,0.9
	c36.2,10.5,72.7,11.8,109.1,2C305.5,288.7,351,249.7,384,195C384,193,384,191,384,189z M244,241.8c19.5-20.3,23.7-49.7,17-67.9
	c-7,7-13.9,13.8-20.6,20.8c-0.7,0.7-0.9,2-1,3.1c-2.8,22.2-19.4,38.7-41.7,41.6c-1.1,0.1-2.4,0.4-3.1,1.1
	c-7,6.8-13.8,13.6-20.8,20.6C193.6,267.9,223.6,263,244,241.8z"/>
</svg>
