<?xml version="1.0" encoding="utf-8"?>
<!-- Generator: Adobe Illustrator 27.0.1, SVG Export Plug-In . SVG Version: 6.00 Build 0)  -->
<svg version="1.1" id="Layer_1" xmlns="http://www.w3.org/2000/svg" xmlns:xlink="http://www.w3.org/1999/xlink" x="0px" y="0px"
	 width="409.6px" height="409.6px" viewBox="0 0 409.6 409.6" enable-background="new 0 0 409.6 409.6" xml:space="preserve">
<path d="M409.2,207.2c-2,3.3-3.6,6.8-6,9.8c-28.8,36.1-62.2,67-102.4,90.2c-26.4,15.2-54.7,25.5-85.4,27.5
	c-25,1.7-49.3-2.5-72.7-11.4c-35.3-13.4-65.7-34.7-93.4-59.9C33.2,248.5,18.3,232.4,4.8,215c-5.8-7.4-5.8-13.1,0-20.5
	c29-36.8,62.8-68.3,103.5-91.9c32-18.5,66.2-29.6,103.6-27.9c25.7,1.1,50,8.1,73,19.4c48.4,23.8,87.1,59.1,120.2,101
	c1.7,2.1,2.7,4.8,4,7.3C409.2,204,409.2,205.6,409.2,207.2z M30.9,204.5c1.5,1.8,2.5,3.2,3.7,4.4C47,221.6,58.9,235,72,246.9
	c25.3,23.1,53.5,41.9,86.3,53.1c19.6,6.7,39.8,9.5,60.5,7.2c26.5-2.9,50.6-12.8,73.3-26.3c29.5-17.7,54.7-40.4,77.5-65.9
	c3-3.3,5.8-6.8,9-10.5c-7.8-8.5-15.2-16.9-23-24.8C329.4,153,300.2,130,265.5,115c-17.3-7.5-35.3-12.4-54.3-13.3
	c-29-1.4-55.7,6.7-81.1,19.9c-28.4,14.7-53,34.5-75.3,57.1C46.6,187,38.9,195.8,30.9,204.5z M285.6,205.1
	c-0.3,44.8-36.8,80.9-81.3,80.4c-44.7-0.5-80.6-36.7-80.2-81.1c0.3-44.8,36.8-80.9,81.3-80.4C250,124.5,285.9,160.7,285.6,205.1z
	 M258.6,204.9c0.2-29.6-23.7-53.7-53.6-54c-29.6-0.3-54.2,24.2-54.1,53.9c0.1,29.7,24.1,53.8,53.8,53.8
	C234.3,258.7,258.5,234.7,258.6,204.9z"/>
</svg>
