<?xml version="1.0" encoding="utf-8"?>
<!-- Generator: Adobe Illustrator 27.0.1, SVG Export Plug-In . SVG Version: 6.00 Build 0)  -->
<svg version="1.1" id="Layer_1" xmlns="http://www.w3.org/2000/svg" xmlns:xlink="http://www.w3.org/1999/xlink" x="0px" y="0px"
	 width="384px" height="384px" viewBox="0 0 384 384" enable-background="new 0 0 384 384" xml:space="preserve">
<path d="M141,0c2.4,0.6,4.8,1.1,7.2,1.9c13.4,4.6,22.1,13.7,26.2,27.1c0.7,2.5,1.8,3.1,4.1,3c6.7-0.1,13.5-0.1,20.2,0
	c6.3,0.1,9.1,2.9,9.2,9.2c0,2.1,0,4.2,0,6.7c8.1,0,15.8,0,23.5,0c8.9,0,17,2.5,24.2,7.8c10.9,8.1,16.3,19.1,16.4,32.5
	c0.2,15.5,0.1,31,0,46.5c0,3.9-1.3,7.1-5.3,8.6c-3.3,1.3-6.5,0.6-8.4-2.1c-1.4-2-2.2-4.8-2.3-7.2c-0.2-14.6-0.1-29.2-0.1-43.9
	c0-16.5-9.8-26.3-26.4-26.3c-7,0-14,0-21.6,0c0,2.4,0,4.6,0,6.8C207.8,86,197.8,96,182.5,96c-31,0-62,0-93,0
	c-15.2,0-25.4-10.1-25.5-25.3c0-2.1,0-4.2,0-7.1C53.7,64,43.8,63.5,34.1,65C23.8,66.5,16.8,76,16,87c-0.1,1-0.1,2-0.1,3
	c0,68,0,136,0,203.9c0,12.7,6.6,22.2,17.8,25.1c3,0.8,6.2,1,9.3,1c40.4,0.1,80.7,0,121.1,0c1.4,0,2.8,0,4.1,0.1
	c4.5,0.3,7.9,3.7,7.8,8c-0.1,4.3-3.4,7.6-7.9,7.9c-1.4,0.1-2.7,0-4.1,0c-40.6,0-81.2-0.2-121.8,0.1c-23.5,0.2-39.3-16.7-41.5-33.7
	c0-0.3-0.4-0.6-0.6-0.9c0-73,0-146,0-219c0.2-0.7,0.6-1.3,0.7-2c1.7-8.2,5.4-15.3,11.4-21.1c7.7-7.4,17-11.3,27.7-11.4
	c8-0.1,15.9,0,24.1,0c0-2.2,0-3.9,0-5.6c0-7.7,2.7-10.3,10.4-10.3c7.4,0,14.7,0,22.2,0c0.4-1.1,0.7-2,1-3
	c3.9-12.7,12.1-21.6,24.5-26.5c2.7-1.1,5.7-1.7,8.5-2.6C134,0,137.5,0,141,0z M192,48c-8,0-15.5,0-22.9,0c-5.6,0-8.5-2.8-9.1-8.3
	c-0.2-1.7-0.2-3.5-0.6-5.2c-2.8-11.4-13.3-19.3-24.5-18.5c-12.4,0.9-21.3,9.7-22.7,22.4c-0.9,7.7-3,9.6-10.8,9.6c-7,0-13.9,0-21.2,0
	c0,7.3,0,14.1,0,21c0,8.7,2.4,11.1,11.2,11.1c29.9,0,59.7,0,89.6,0c1.5,0,3,0,4.5-0.2c3.9-0.7,6.6-3.5,6.7-7.4
	C192.1,64.4,192,56.4,192,48z M212.2,384c-2.1-0.8-4.3-1.3-6.3-2.3c-8.8-4.4-13.9-11.6-13.9-21.4c-0.1-58.9-0.1-117.7,0-176.6
	c0-13.1,10.2-23.5,23.7-23.6c33.2-0.3,66.5-0.2,99.7,0c11,0.1,20.4,4.4,28.1,12.2c9.4,9.4,18.7,18.8,28.1,28.1
	c6.8,6.6,10.4,14.8,12.3,23.9c0,46.5,0,93,0,139.5c-0.8,2.3-1.5,4.7-2.6,6.9c-3.6,7.5-10,11.3-17.7,13.4
	C313.2,384,262.8,384,212.2,384z M207.9,271.9c0,28.4,0,56.7,0,85.1c0,8.4,2.7,11,11,11c46.1,0,92.2,0,138.3,0
	c8.1,0,10.9-2.7,10.9-10.8c0-42,0-84,0-125.9c0-8.1-2.6-14.8-8.4-20.5c-8.9-8.6-17.6-17.4-26.2-26.2c-5.7-5.9-12.4-8.7-20.7-8.7
	c-31.4,0.2-62.7,0.1-94.1,0.1c-8.2,0-10.7,2.5-10.7,10.8C207.9,215.2,207.9,243.6,207.9,271.9z M251.1,255.9c-1.1,0-2.3-0.1-3.4,0.1
	c-4.6,0.5-7.8,3.8-7.7,8.1c0,4.2,3,7.3,7.5,7.9c1,0.1,2,0.1,3,0.1c25,0,49.9,0,74.9,0c1.4,0,2.8,0,4.1-0.3c3.9-0.8,6.4-3.9,6.5-7.6
	c0.1-3.9-2.6-7.1-6.6-7.9c-1.3-0.3-2.7-0.3-4.1-0.3c-12.4,0-24.7,0-37.1,0C275.8,255.9,263.5,255.9,251.1,255.9z M249.4,304
	c-5.7,0-9.3,3.2-9.4,8c0,4.8,3.5,8,9.3,8.1c1.6,0,3.2,0,4.9,0c23.2,0,46.4,0,69.6,0c0.9,0,1.7,0,2.6,0c6-0.1,9.6-3.3,9.6-8.2
	c-0.1-4.8-3.7-7.9-9.4-7.9c-12.9-0.1-25.7,0-38.6,0C275.1,303.9,262.2,303.9,249.4,304z"/>
</svg>
