<?xml version="1.0" encoding="utf-8"?>
<!-- Generator: Adobe Illustrator 27.0.1, SVG Export Plug-In . SVG Version: 6.00 Build 0)  -->
<svg version="1.1" id="Layer_1" xmlns="http://www.w3.org/2000/svg" xmlns:xlink="http://www.w3.org/1999/xlink" x="0px" y="0px"
	 width="409.6px" height="409.6px" viewBox="0 0 409.6 409.6" enable-background="new 0 0 409.6 409.6" xml:space="preserve">
<path d="M409.2,208c-3.3,9.5-10,12.9-19.9,12.9c-54.4-0.2-108.8-0.1-163.3-0.1c-1.6,0-3.2,0-5.3,0c0,1.8,0,3.3,0,4.9
	c0,54.6-0.1,109.1,0.1,163.7c0,9.9-3.3,16.7-12.9,19.9c-2.1,0-4.3,0-6.4,0c-9.5-3.3-12.9-10.1-12.9-19.9
	c0.2-54.4,0.1-108.9,0.1-163.3c0-1.6,0-3.2,0-5.2c-1.8,0-3.4,0-4.9,0c-55.1,0-110.2,0-165.3,0c-5.3,0-10.1-1-13.8-5
	c-4.4-4.8-5.7-10.5-3.4-16.7c2.4-6.1,7.1-9.5,13.6-10.2c1.6-0.2,3.2-0.1,4.8-0.1c54.6,0,109.1,0,163.7,0c1.6,0,3.2,0,5.3,0
	c0-1.8,0-3.3,0-4.9c0-55.1,0-110.2,0-165.3c0-5.4,1.1-10.4,5.3-14.1c4.8-4.2,10.4-5.4,16.4-3.1c6.1,2.3,9.5,7.1,10.2,13.6
	c0.2,1.6,0.1,3.2,0.1,4.8c0,54.6,0,109.1,0,163.7c0,1.6,0,3.2,0,5.3c1.8,0,3.3,0,4.8,0c54.6,0,109.1,0.1,163.7-0.1
	c9.9,0,16.7,3.3,19.9,12.9C409.2,203.8,409.2,205.9,409.2,208z"/>
</svg>
