<?xml version="1.0" encoding="utf-8"?>
<!-- Generator: Adobe Illustrator 27.0.1, SVG Export Plug-In . SVG Version: 6.00 Build 0)  -->
<svg version="1.1" id="Layer_1" xmlns="http://www.w3.org/2000/svg" xmlns:xlink="http://www.w3.org/1999/xlink" x="0px" y="0px"
	 width="491.5px" height="491.5px" viewBox="0 0 491.5 491.5" enable-background="new 0 0 491.5 491.5" xml:space="preserve">
<path d="M219.9,0.4c8.8,1.3,17.7,2.2,26.4,3.8c42.5,8.1,78.8,27.8,109.1,58.5c27.5,28,45.7,61.2,53.5,99.7
	c9.8,48.4,3,94.6-21.2,137.7c-7.8,13.8-17.6,26.5-26.5,39.7c-0.8,0.3-1.7,0.6-2.5,1c1.6,0.8,3.5,1.3,4.7,2.5
	c40.2,39.5,80.4,79,120.4,118.6c2.9,2.8,4.8,6.6,7.2,9.9c0,2.2,0,4.5,0,6.7c-5,10.7-12.6,14.8-21.4,11.3c-2.9-1.1-5.5-3.3-7.7-5.5
	c-40.5-39.7-80.8-79.5-121.2-119.2c-1.2-1.2-2.5-2.4-3.8-3.6c-6.5,4.4-12.7,9-19.1,13c-36.1,22.8-75.8,33.4-118.3,31.8
	c-56.1-2.1-103.9-23.7-143-64.1C27.1,311.9,9,275.6,2.9,233.8C-5,179.6,6.8,129.7,39.3,85.4c31.3-42.7,73.2-69.4,125-80.5
	c8.1-1.7,16.4-2.4,24.6-3.6c1.4-0.2,2.8-0.6,4.1-0.9C202,0.4,210.9,0.4,219.9,0.4z M32.1,202.5c0.4,7.1,0.4,13,1.1,18.9
	c4.4,37.1,18.5,69.9,44.3,97.1c45,47.6,100.7,65.5,164.5,53.1c55.9-10.9,97.7-43,122.5-94.8c25-52.2,23.5-104.9-4.5-155.3
	c-28.6-51.7-73.9-81.1-132.5-88.3c-46.3-5.7-88.9,5.6-126.2,33.8C56.2,101.2,33.7,147.3,32.1,202.5z"/>
</svg>
