<?xml version="1.0" encoding="utf-8"?>
<!-- Generator: Adobe Illustrator 27.0.1, SVG Export Plug-In . SVG Version: 6.00 Build 0)  -->
<svg version="1.1" id="Layer_1" xmlns="http://www.w3.org/2000/svg" xmlns:xlink="http://www.w3.org/1999/xlink" x="0px" y="0px"
	 width="365px" height="365px" viewBox="0 0 365 365" enable-background="new 0 0 365 365" xml:space="preserve">
<path d="M195.3,0.4c7.3,1.6,14.3,3.8,20.4,8.4C232,21.1,238,42.2,230.3,60.9c-7.6,18.4-26.5,29.1-46.5,26.4
	c-21.5-2.9-37.3-20.6-37.6-42.4c-0.3-22.1,14.6-40.3,36.2-44c0.5-0.1,1.1-0.4,1.6-0.6C187.7,0.4,191.5,0.4,195.3,0.4z M87.5,127.8
	c22.5,0.1,40.2-17.4,40.3-39.9c0-22.3-17.3-39.9-39.7-40.1c-22.4-0.2-40.2,17.4-40.3,39.9C47.7,110,65.2,127.7,87.5,127.8z
	 M80.5,189.7c-0.1-20.2-16.4-36.4-36.5-36.4c-20.1,0-36.4,16.4-36.4,36.5C7.7,210,24,226.2,44.1,226.1
	C64.3,226.1,80.6,209.7,80.5,189.7z M55.1,291.9c0.1,18.2,14.8,32.8,32.8,32.7c18-0.2,32.8-15,32.7-32.9c-0.1-18-15-32.7-32.9-32.6
	C69.3,259.2,55,273.7,55.1,291.9z M189.6,306.4c-15.9,0.2-28.8,13.2-28.9,29.1c-0.1,15.9,13.2,29.2,29.2,29.2
	c16.1,0,29.1-13.2,29-29.3C218.8,319.3,205.5,306.1,189.6,306.4z M292,266.4c-14.1-0.1-25.6,11.3-25.6,25.4
	c0,14,11.2,25.3,25.2,25.4c14.1,0.1,25.6-11.3,25.6-25.4C317.2,277.8,305.9,266.5,292,266.4z M357.4,189.7
	c-0.1-12.2-9.9-21.8-22.1-21.6c-12.1,0.1-21.6,9.6-21.6,21.7c-0.1,12,9.8,21.9,21.9,21.9C347.6,211.6,357.5,201.7,357.4,189.7z
	 M291.8,69.6c-9.8-0.1-18.1,8.1-18.2,18c-0.1,10.1,8,18.3,18.1,18.4c10,0,18.1-7.9,18.2-17.9C310,77.9,301.9,69.6,291.8,69.6z"/>
</svg>
