<?xml version="1.0" encoding="utf-8"?>
<!-- Generator: Adobe Illustrator 27.0.1, SVG Export Plug-In . SVG Version: 6.00 Build 0)  -->
<svg version="1.1" id="Layer_1" xmlns="http://www.w3.org/2000/svg" xmlns:xlink="http://www.w3.org/1999/xlink" x="0px" y="0px"
	 width="384px" height="384px" viewBox="0 0 384 384" enable-background="new 0 0 384 384" xml:space="preserve">
<path d="M162.8,384c-2.4-0.6-4.8-1.2-7.2-1.9c-21.2-6.1-35.5-25.1-35.5-47.4c-0.1-56,0-111.9,0-167.9c0-1.3,0-2.7,0-4.7
	c-1.3,1.2-2.2,1.9-2.9,2.6c-8.2,8.2-16.4,16.5-24.7,24.6c-5.7,5.7-12,5.6-17.7,0c-6.2-6.2-12.4-12.3-18.6-18.6
	c-11.2-11.4-11.2-27.1,0-38.4c6.6-6.6,13.2-13.2,20.4-20.4c-3.4-3.2-6.7-6.1-9.8-9.1C53.4,89.3,53.5,71.4,67,57.9c13-13,26-26,39-39
	c13.3-13.3,31.2-13.3,44.6-0.1c3.1,3.1,6.1,6.3,9.5,9.9c4.4-4.5,8.5-8.6,12.6-12.7c3.4-3.4,6.4-7.1,10.2-9.9
	C186.5,3.5,190.9,2,195,0c3,0,6,0,9,0c8.4,2.1,14.3,7.7,20,13.7c3.9,4.1,7.9,8,11.9,12c7.3,7.3,7.3,12.9,0.1,20.1
	c-24.6,24.7-49.3,49.3-74,74c-0.9,0.9-1.8,1.9-3.1,3.2c23.5,0,46.1,0,69.1,0c0-6.7-0.1-13.2,0-19.7c0.1-9.1,5.4-16.1,14-18.6
	c23.1-6.7,46.3-13.3,69.5-19.9c13-3.7,24.5,4.9,24.5,18.4c0,84.2,0.1,168.5,0,252.7c0,21.6-14.8,40.4-35.6,46.2
	c-2.4,0.7-4.8,1.2-7.2,1.8C249.8,384,206.3,384,162.8,384z M142.6,146c0,1.7,0,3,0,4.2c0,60.8,0,121.7,0,182.5
	c0,17.9,10.8,28.8,28.7,28.8c38,0,76,0,114,0c17.5,0,28.4-10.8,28.4-28.2c0-61.1,0-122.2,0-183.3c0-1.3-0.1-2.6-0.2-4.1
	C256.4,146,199.7,146,142.6,146z M214,35.1c-3.1-3-6.4-6.1-9.6-9.2c-4.8-4.7-5.3-4.7-9.9-0.1c-40.3,40.3-80.6,80.6-120.9,120.8
	c-0.6,0.6-1.3,1.2-1.8,1.9c-1.8,2-1.8,4,0.1,6c3.8,3.9,7.7,7.8,11.3,11.5C126.8,122.4,170.1,79.1,214,35.1z M313.4,123.3
	c0-11.7,0-23.4,0-35.4c-20.6,5.8-40.8,11.5-61.1,17.2c-0.7,0.2-1.6,1.3-1.6,2c-0.1,5.2-0.1,10.4-0.1,16.1
	C271.7,123.3,292.4,123.3,313.4,123.3z M144.1,43.9c-3.4-3.3-6.8-6.7-10.3-9.9c-3.7-3.4-7.5-3.4-11.3,0.1c-2.1,2-4.1,4-6.1,6.1
	c-11.3,11.3-22.6,22.6-33.9,33.9c-3.6,3.6-4.4,7.5-1.6,10.6c3.5,4,7.5,7.5,11.2,11.1C109.4,78.6,126.5,61.5,144.1,43.9z M267,319.8
	c0,3.7,0.9,7,3.7,9.4c3.6,3.2,7.8,4,12.2,1.9c4.8-2.3,6.7-6.4,6.7-11.6c0-43.9,0-87.7,0-131.6c0-7.8-4.7-13.1-11.4-13
	c-6.6,0.1-11.1,5.2-11.1,12.9c0,21.9,0,43.7,0,65.6C267,275.6,267,297.7,267,319.8z M239.4,187.1c0-5.8-2.9-10-7.8-11.5
	c-7.5-2.4-14.6,3-14.7,11.3c-0.1,12.5,0,25,0,37.5c0,31.6-0.1,63.2,0.1,94.8c0,3,1.2,6.4,2.8,9c2.6,4,7.6,5,12.1,3.4
	c4.7-1.7,7.4-5.6,7.5-11c0-22.4,0-44.7,0-67.1C239.4,231.4,239.4,209.3,239.4,187.1z M189.3,211.9c0-8.5,0.1-17-0.1-25.5
	c-0.1-6.1-3.8-10.3-9.5-11.2c-7.4-1.2-12.9,4.4-12.9,13.2c0,43.5,0,86.9,0,130.4c0,1.6,0.1,3.3,0.4,4.8c1.1,4.9,5.5,8.5,10.5,8.6
	c5,0.2,9.7-3.1,11-7.9c0.5-1.9,0.5-4,0.5-5.9c0-21.5,0-43,0-64.5C189.3,239.9,189.3,225.9,189.3,211.9z"/>
</svg>
