<?xml version="1.0" encoding="utf-8"?>
<!-- Generator: Adobe Illustrator 27.0.1, SVG Export Plug-In . SVG Version: 6.00 Build 0)  -->
<svg version="1.1" id="Layer_1" xmlns="http://www.w3.org/2000/svg" xmlns:xlink="http://www.w3.org/1999/xlink" x="0px" y="0px"
	 width="330px" height="306.2px" viewBox="0 0 330 306.2" enable-background="new 0 0 330 306.2" xml:space="preserve">
<path d="M165,306.2c-34.5,0-69,0-103.5,0c-30.4,0-54.8-20.3-60.4-50.1c-0.9-4.6-0.9-9.4-1-14.2c-0.1-12.2-0.1-24.5,0-36.8
	c0.1-6.4,4.3-11.4,10-12.2c5.9-0.9,11.4,2.3,13.3,8c0.6,1.7,0.7,3.7,0.7,5.5c0.1,12.4,0,24.8,0,37.1c0,23.1,15.5,38.6,38.5,38.6
	c68.2,0,136.5,0,204.7,0c23,0,38.5-15.5,38.5-38.6c0-12.5,0-25,0-37.5c0-8.1,4.8-13.3,12-13.2c7,0.1,12,5.4,11.9,13.1
	c-0.1,15.5,0.6,31.1-0.7,46.5c-2.4,29.9-28.4,53.5-58.5,53.7C235.5,306.3,200.2,306.1,165,306.2C165,306.1,165,306.1,165,306.2z
	 M153,41.9c0,1.4,0,2.7,0,4.1c0,56.6,0,113.3,0,169.9c0,1.2,0,2.5,0,3.7c0.3,6,5,10.9,10.9,11.4c6,0.5,11.7-3.7,12.8-9.7
	c0.3-1.6,0.2-3.2,0.2-4.9c0-56.9,0-113.8,0-170.6c0-1.3,0-2.6,0-4.7c1.6,1.5,2.6,2.4,3.5,3.3C195,59,209.5,73.5,224,88
	c5.6,5.6,13,6,18,1c4.9-4.9,4.6-12.4-1-18C218.9,49,196.8,26.9,174.7,4.8c-6.4-6.4-12.9-6.4-19.3,0c-21.9,21.8-43.7,43.6-65.6,65.4
	c-5.6,5.6-5.9,12.9-0.8,17.9c5,4.9,12.1,4.5,17.6-1c14.2-14.2,28.5-28.4,42.7-42.7c0.9-1,1.6-2.2,2.4-3.3
	C152.2,41.4,152.6,41.7,153,41.9z"/>
</svg>
