<?xml version="1.0" encoding="utf-8"?>
<!-- Generator: Adobe Illustrator 27.0.1, SVG Export Plug-In . SVG Version: 6.00 Build 0)  -->
<svg version="1.1" id="Layer_1" xmlns="http://www.w3.org/2000/svg" xmlns:xlink="http://www.w3.org/1999/xlink" x="0px" y="0px"
	 width="384px" height="384px" viewBox="0 0 384 384" enable-background="new 0 0 384 384" xml:space="preserve">
<path d="M203.2,0c7.4,1,14.9,1.7,22.2,3c30.7,5.2,58.4,17.6,83.2,36.5c4.2,3.2,5.2,7.4,2.6,11c-2.6,3.7-7.3,4.2-11.5,0.9
	c-19.6-14.9-41.3-25.6-65.4-31.4C139.9-2.8,44.3,53.6,20.9,147.9c-16.6,67,1.1,125.4,50.7,173.8c0.8,0.8,1.7,1.4,2.2,1.9
	c19.8-61.7,60.5-96.1,126.7-93.5c51.8,2,96.6,40.3,108.9,94c1-0.8,1.9-1.4,2.6-2.1c33.6-31.5,52.6-70.2,56.3-116.2
	c3-37.1-5.2-71.7-23.9-103.8c-0.4-0.6-0.7-1.3-1.1-2c-2-4-1-8,2.5-10.2c3.6-2.2,8.2-1.3,10.3,2.7c5.2,10.1,10.6,20.1,14.9,30.6
	c7.1,17.2,10.9,35.3,12.2,53.8c0.1,1,0.4,1.9,0.6,2.9c0,8,0,16,0,24c-0.3,2.5-0.6,4.9-0.9,7.4c-4.4,40.4-19.6,76.2-46.4,106.8
	c-29.8,34-67,55-111.6,62.9c-7,1.2-14,2-21.1,2.9c-8,0-16,0-24,0c-1-0.2-1.9-0.5-2.9-0.6c-32.6-2.5-62.8-12.5-90.1-30.7
	C41.2,322,13,279.5,2.9,225.1C1.6,218.1,1,211,0,204c0-8,0-16,0-24c1.2-8.5,2.1-17.1,3.7-25.5C18.1,77.9,81.7,15.6,158.5,2.9
	c7.1-1.2,14.3-2,21.5-2.9C187.8,0,195.5,0,203.2,0z M191.3,369c35.6-0.3,67.9-9.5,97.3-28.7c7.9-5.2,7.9-5.2,5.7-14.5
	c-14.6-62-78.8-97-138.5-74.9c-37.1,13.8-59.1,41.1-67.2,79.8c-0.6,3-0.1,4.9,2.7,6.8C121.6,358.5,155.2,368.7,191.3,369z
	 M192.2,79.5c37.2,0.1,67.4,30.4,67.3,67.7c-0.1,37.2-30.4,67.4-67.7,67.3c-37.2-0.1-67.4-30.4-67.3-67.7
	C124.6,109.7,154.9,79.4,192.2,79.5z M191.9,199.5c28.9,0,52.5-23.5,52.5-52.4c0.1-28.9-23.4-52.6-52.3-52.6
	c-29.1-0.1-52.7,23.5-52.7,52.5C139.5,175.9,163.1,199.5,191.9,199.5z M330.1,61.5c-4.1-0.1-7.6,3.4-7.6,7.5c0,4,3.3,7.4,7.3,7.4
	c4.1,0.1,7.6-3.4,7.6-7.5C337.4,65,334.1,61.6,330.1,61.5z"/>
</svg>
